<svg width="120" height="28" viewBox="0 0 120 28" fill="none" xmlns="http://www.w3.org/2000/svg">
<path fill-rule="evenodd" clip-rule="evenodd" d="M16.8656 17.8379C16.8656 16.6239 17.1849 12.6759 19.2064 12.6759C21.2279 12.6759 21.5456 16.6239 21.5456 17.8379C21.5456 19.0523 21.2279 23.0003 19.2064 23.0003C17.1849 23.0003 16.8656 19.0523 16.8656 17.8379ZM11.6478 17.8379C11.6478 22.5875 13.771 27.9047 19.2064 27.9047C24.6385 27.9047 26.765 22.5875 26.765 17.8379C26.765 13.0883 24.6385 7.77148 19.2064 7.77148C13.771 7.77148 11.6478 13.0883 11.6478 17.8379Z" fill="#4D6E82"/>
<path fill-rule="evenodd" clip-rule="evenodd" d="M59.1682 17.8379C59.1682 16.6239 59.4871 12.6759 61.5086 12.6759C63.5305 12.6759 63.8494 16.6239 63.8494 17.8379C63.8494 19.0523 63.5305 23.0003 61.5086 23.0003C59.4871 23.0003 59.1682 19.0523 59.1682 17.8379ZM53.95 17.8379C53.95 22.5875 56.0765 27.9047 61.5086 27.9047C66.9423 27.9047 69.0672 22.5875 69.0672 17.8379C69.0672 13.0883 66.9423 7.77148 61.5086 7.77148C56.0765 7.77148 53.95 13.0883 53.95 17.8379Z" fill="#4D6E82"/>
<path fill-rule="evenodd" clip-rule="evenodd" d="M32.7738 21.8653V27.5697H27.6818V8.10693H32.7214L36.5574 18.5673C36.5574 18.5673 36.4496 15.3073 36.4496 13.0645V8.10693H41.407V27.5697H36.4496L32.7063 17.1581L32.7738 21.8653Z" fill="#4D6E82"/>
<path fill-rule="evenodd" clip-rule="evenodd" d="M75.2371 17.0905V12.2909C76.7087 12.2113 77.9582 12.9345 77.9582 14.6369C77.9582 15.9025 76.9963 17.1141 75.5804 17.1141L75.2371 17.0905ZM84.2282 27.5697L79.9875 19.4645C82.1152 18.6377 83.2606 16.7297 83.2606 14.5849C83.2606 9.44933 79.7016 8.10693 75.0545 8.10693H70.0015V27.5697H75.2371V22.3809C75.2371 21.4261 75.1863 20.4709 75.161 19.5173L75.2119 19.4645L78.2958 27.5641L84.2282 27.5697Z" fill="#4D6E82"/>
<path fill-rule="evenodd" clip-rule="evenodd" d="M89.725 12.9609C92.1675 12.9609 92.7878 15.9025 92.7878 18.0197C92.7878 19.8517 92.1675 22.8477 89.725 22.8709V12.9609ZM84.4938 27.5693H89.0433C92.2993 27.5693 98.0446 26.7441 98.0446 17.7621C98.0446 11.8761 95.6114 8.07528 89.3894 8.12848C87.4533 8.14768 84.5012 8.37768 84.5012 8.37768L84.4938 27.5693Z" fill="#4D6E82"/>
<path fill-rule="evenodd" clip-rule="evenodd" d="M111.181 20.9365L111.917 16.4197C112.123 15.2057 112.257 13.9661 112.416 12.7533H112.468C112.598 13.9661 112.704 15.2057 112.861 16.4197L113.44 20.9365H111.181ZM120 27.5697L115.8 8.10693H109.264L104.516 27.5697H110.027L110.474 25.0641H114.067L114.463 27.5697H120Z" fill="#4D6E82"/>
<path fill-rule="evenodd" clip-rule="evenodd" d="M53.8841 8.27891C53.0181 7.94451 51.972 7.77051 51.0263 7.77051C48.428 7.77051 42.3382 9.24411 42.3382 17.9653C42.3382 24.6261 46.0664 27.9049 50.4495 27.9049C51.6303 27.9049 52.9327 27.5457 53.8841 26.9253L53.7735 21.8957C53.0299 22.7885 52.3645 23.0009 51.1581 23.0009C48.4805 23.0009 47.5962 20.1093 47.5962 17.8385C47.5962 15.6961 48.4805 12.6765 51.2618 12.6765C52.3645 12.6765 52.9941 13.0889 53.7568 13.8109L53.8841 8.27891Z" fill="#4D6E82"/>
<path fill-rule="evenodd" clip-rule="evenodd" d="M11.5447 8.27915C10.6787 7.94475 9.63257 7.77075 8.68851 7.77075C6.08981 7.77075 0 9.24435 0 17.9656C0 24.6264 3.72702 27.9052 8.11012 27.9052C9.2909 27.9052 10.5933 27.546 11.5447 26.9256L11.4365 21.896C10.6921 22.7888 10.0267 23.0012 8.81867 23.0012C6.14228 23.0012 5.25842 20.1096 5.25842 17.8388C5.25842 15.6964 6.14228 12.6768 8.92524 12.6768C10.0267 12.6768 10.6559 13.0892 11.4174 13.8112L11.5447 8.27915Z" fill="#4D6E82"/>
<path fill-rule="evenodd" clip-rule="evenodd" d="M101.648 8.9226C100.668 8.9226 99.7629 8.6134 99.0226 8.0918V27.569H104.293V8.1078H104.254C103.517 8.6206 102.621 8.9226 101.648 8.9226Z" fill="#4D6E82"/>
<path fill-rule="evenodd" clip-rule="evenodd" d="M105.224 3.5084C105.224 5.4464 103.625 7.0172 101.656 7.0172C99.6836 7.0172 98.0847 5.4464 98.0847 3.5084C98.0847 1.5704 99.6836 0 101.656 0C103.625 0 105.224 1.5704 105.224 3.5084Z" fill="#4D6E82"/>
</svg>
