<svg width="120" height="34" viewBox="0 0 120 34" fill="none" xmlns="http://www.w3.org/2000/svg">
<path d="M13.05 26.1429V19.2857H4.00476V32.7922H0V1H4.00476V13.7792H13.05V1H17.0547V25.4156C17.0547 26.8701 17.2619 27.7013 18.4357 27.7013C18.85 27.7013 19.3333 27.5974 19.3333 27.5974V32.6883C18.9881 32.8961 18.1595 33 17.3309 33C14.8453 33 13.05 31.2338 13.05 26.1429ZM32.1157 18.585C31.9817 15.1937 31.1781 12.83 28.8341 12.83C26.5571 12.83 25.2846 15.3992 25.2846 18.585H32.1157ZM36 20.6403C36 20.6403 36 21.9763 35.7991 22.9012H25.1507C25.1507 26.1897 26.4901 29.17 28.9681 29.17C30.7093 29.17 31.8478 28.0395 32.7184 26.498L35.5312 29.3755C33.9239 32.664 31.5799 34 28.9681 34C23.7443 34 21.3333 28.1423 21.3333 21.1542C21.3333 14.2688 23.9452 8 28.8341 8C33.7899 8 36 13.7549 36 20.6403ZM40 26.2778V0H43.8V25.5648C43.8 26.9907 44 27.8056 45.1333 27.8056C45.5333 27.8056 46 27.7037 46 27.7037V32.6944C45.6667 32.8981 44.8667 33 44.0667 33C41.7333 33 40 31.2685 40 26.2778ZM61.3333 25.8408C61.3333 31.822 57.9493 34.1939 54.2267 33.9877C50.9103 33.9877 48.7445 31.9252 48 30.8939L50.0305 26.7689C50.7749 27.8001 52.6024 29.1408 54.6328 29.1408C56.1895 29.1408 57.6108 28.3158 57.6108 26.2533C57.6108 24.8095 56.934 24.0876 55.7834 23.7782L52.6701 22.747C51.5195 22.4376 50.9103 22.0251 50.3012 21.4063C49.1506 20.272 48.5415 18.2094 48.5415 16.0438C48.5415 10.6813 51.7225 8 55.1066 8C58.2877 8 60.3181 9.85626 60.9273 10.7844L58.8291 14.8063C57.8139 13.4657 56.1218 12.7438 54.9035 12.7438C53.5499 12.7438 52.3317 13.4657 52.3317 15.5282C52.3317 17.3844 53.0085 17.6938 54.0914 18.0032L56.8663 18.7251C57.8139 19.0345 58.8291 19.5501 59.5736 20.272C60.7242 21.4063 61.3333 23.4689 61.3333 25.8408ZM81.3333 28.5534V33.1779C80.9253 33.4862 80.246 33.7945 78.954 33.7945C77.1867 33.7945 76.2353 32.253 75.8953 30.6087C75.148 32.3557 73.5167 34 71.0693 34C67.1947 34 64 29.8893 64 21.3597C64 14.0632 67.0587 8 72.3607 8C76.6433 8 79.158 11.6996 79.158 17.9684V27.2174C79.158 28.3478 79.566 28.7589 80.178 28.7589C80.8573 28.7589 81.3333 28.5534 81.3333 28.5534ZM75.2833 26.7036V18.2767C75.2833 14.9881 74.264 13.0356 72.0887 13.0356C69.506 13.0356 68.0787 15.913 68.0787 20.8458C68.0787 26.2925 69.574 28.8617 72.0207 28.8617C73.992 28.8617 75.2833 26.7036 75.2833 26.7036ZM88.5173 10.9679C89.6053 8.14859 91.782 7 93.6873 7C97.1567 7 99.3333 10.8635 99.3333 15.9799V32.7912H95.388V17.4418C95.388 14.5181 94.7073 12.743 92.5987 12.743C91.17 12.743 89.5373 14.1004 88.9253 15.8755V33H84.9793V14.7269C84.9793 12.9518 84.5713 12.3253 83.3467 12.3253C83.0747 12.3253 82.6667 12.3253 82.6667 12.3253V7.62651C83.3467 7.31325 84.0953 7.20884 85.0473 7.20884C87.2247 7.20884 88.3807 8.67068 88.5173 10.9679ZM120 28.5534V33.1779C119.592 33.4862 118.913 33.7945 117.621 33.7945C115.853 33.7945 114.902 32.253 114.562 30.6087C113.815 32.3557 112.183 34 109.736 34C105.861 34 102.667 29.8893 102.667 21.3597C102.667 14.0632 105.725 8 111.027 8C115.31 8 117.825 11.6996 117.825 17.9684V27.2174C117.825 28.3478 118.233 28.7589 118.845 28.7589C119.524 28.7589 120 28.5534 120 28.5534ZM114.018 26.7036V18.2767C114.018 14.9881 112.999 13.0356 110.823 13.0356C108.241 13.0356 106.813 15.913 106.813 20.8458C106.813 26.2925 108.309 28.8617 110.755 28.8617C112.727 28.8617 114.018 26.7036 114.018 26.7036Z" fill="#9A0941"/>
</svg>
