<svg width="120" height="39" viewBox="0 0 120 39" fill="none" xmlns="http://www.w3.org/2000/svg">
<path d="M68.9597 5.64L66.6518 0H63.2464L65.544 5.64H68.9597Z" fill="#179F96"/>
<path d="M120 5.64014H3.69257V38.6101H120V5.64014Z" fill="#179F96"/>
<path d="M24.8944 26.08C24.1456 23.41 21.7044 21.74 19.0067 20.71L17.3655 20.09C15.9398 19.56 14.4114 18.86 14.4114 17.09C14.4114 15.09 16.2065 14.25 17.8066 14.25C18.6053 14.3406 19.3724 14.6074 20.0495 15.0302C20.7267 15.4529 21.2961 16.0206 21.7146 16.69L24.5354 15.19C23.8494 14.0893 22.8906 13.1745 21.747 12.5297C20.6034 11.8849 19.3119 11.5308 17.9912 11.5C14.5345 11.5 11.0676 13.5 11.0676 17.09C11.0676 20.5 13.5191 21.84 16.1347 22.94L17.7143 23.59C19.1811 24.18 20.6786 24.8 21.3454 26.06C21.5956 26.5395 21.719 27.0722 21.7044 27.61C21.7381 28.1387 21.6572 28.6684 21.4669 29.1646C21.2766 29.6608 20.9811 30.1123 20.5998 30.4897C20.2185 30.8671 19.7599 31.162 19.2539 31.355C18.7478 31.548 18.2058 31.6349 17.663 31.61C16.4648 31.5382 15.3197 31.1021 14.3888 30.3631C13.4579 29.6241 12.7878 28.6194 12.4728 27.49L9.33408 28.05C10.4213 31.99 13.5498 34.55 17.2527 34.55C21.3556 34.55 25.1098 31.79 25.1098 27.8C25.1292 27.2094 25.0566 26.6193 24.8944 26.05V26.08Z" fill="white"/>
<path d="M60.518 26.09L56.9894 34.14H60.4564L63.9747 26.09L70.1393 11.97L66.7031 11.96L60.518 26.09Z" fill="white"/>
<path d="M55.1329 11.9502L49.4914 26.0902L48.917 27.5202L48.3733 26.0902L42.8857 11.4702H42.5677L37.2032 26.0902L36.6698 27.5202L36.0851 26.0902L30.3308 11.9502H26.7715L32.7515 26.0902L36.3518 34.5802H37.1211L40.2598 26.0902L42.8242 19.1502L45.3269 26.0902L48.4041 34.5802H49.235L52.6814 26.0902L58.405 11.9702L55.1329 11.9502Z" fill="white"/>
<path d="M111.384 26.0902L104.522 11.2202H104.122L96.9416 26.0902L93.0644 34.0902H96.48L99.0854 28.7502H109.107L111.712 34.0902H115.107L111.384 26.0902ZM100.337 26.0002L104.122 18.2202L107.763 26.0002H100.337Z" fill="white"/>
<path d="M83.6687 14.59C85.7803 14.7207 87.7869 15.5335 89.3718 16.9V13.15C87.7472 12.1317 85.8566 11.5902 83.9252 11.59C82.335 11.5462 80.7523 11.8182 79.2732 12.3892C77.7941 12.9603 76.4496 13.8186 75.3214 14.912C74.1931 16.0054 73.3047 17.3111 72.7101 18.7496C72.1155 20.1881 71.8272 21.7295 71.8626 23.28C71.8617 24.2237 71.9788 25.164 72.2113 26.08C72.8933 28.5394 74.4 30.7056 76.4912 32.2334C78.5825 33.7611 81.1381 34.5626 83.7508 34.51C85.6747 34.5179 87.5621 33.9981 89.1974 33.01V29.51C87.6296 30.7356 85.6883 31.4181 83.679 31.45C81.918 31.5121 80.1826 31.0262 78.7238 30.0625C77.2651 29.0989 76.1589 27.7075 75.5655 26.09C75.2379 25.1603 75.0749 24.183 75.0834 23.2C75.0731 18.26 78.5401 14.59 83.6687 14.59Z" fill="white"/>
<path d="M70.1803 8.64014H66.7749L65.544 5.64014H68.9597L70.1803 8.64014Z" fill="white"/>
</svg>
