<svg width="120" height="46" viewBox="0 0 120 46" fill="none" xmlns="http://www.w3.org/2000/svg">
<path d="M120 17.3177C101.267 5.82629 81.0907 0 59.9974 0C38.9042 0 18.7282 5.82629 0 17.3177L0.156302 17.84C19.2407 9.57937 39.5678 5.70055 59.9974 5.70055C80.4271 5.70055 100.762 9.56969 119.841 17.84L120 17.3177Z" fill="#E30613"/>
<path d="M43.1195 20.0066C39.2964 20.0066 34.9609 22.2829 34.9609 27.8351C34.9609 36.5407 44.3853 33.6614 44.3853 37.7337C44.3853 39.4007 43.0452 39.6683 41.6871 39.6683C39.2964 39.6683 36.9468 38.6397 35.4017 37.8111L35.107 44.0727C37.0544 44.8594 39.0863 45.2141 42.0663 45.2141C46.4044 45.2141 50.9884 43.6019 50.9884 37.1727C50.9884 28.0125 41.1388 30.9659 41.1388 27.2225C41.1388 25.8812 42.7607 25.5491 44.1982 25.5491C46.0632 25.5682 47.8981 26.1416 49.5535 27.2225L50.066 21.4349C47.7266 20.3258 45.4076 20.0033 43.1271 20.0033M63.5235 20.0033C60.785 19.9578 58.0648 20.5695 55.5084 21.8057L55.6109 27.4611C57.6177 26.1817 59.8389 25.526 62.0885 25.5491C64.4792 25.5491 66.4163 26.4294 66.4445 29.7149C65.428 29.5048 64.3998 29.397 63.3697 29.3925C59.8388 29.3925 53.479 30.2598 53.479 37.6176C53.479 42.8474 56.8613 45.2076 60.6536 45.2076C63.3748 45.2076 65.2018 43.8631 66.7085 40.8548H66.7905C66.7905 42.1059 66.9032 43.3537 66.9416 44.6498H72.9913C72.7265 42.7762 72.6072 40.8746 72.6352 38.9718V30.0115C72.6352 22.6537 68.415 20.0162 63.5235 20.0162M110.158 20.0162C107.34 20.0162 104.859 20.5386 102.504 21.7412L102.61 27.3676C104.449 26.0779 106.597 25.562 108.726 25.562C111.114 25.562 113.056 26.4423 113.082 29.7278C112.065 29.5179 111.037 29.4101 110.007 29.4054C106.474 29.4054 100.114 30.2727 100.114 37.6305C100.114 42.8603 103.496 45.2205 107.288 45.2205C110.01 45.2205 111.831 43.876 113.341 40.8677H113.425C113.425 42.1188 113.535 43.3666 113.571 44.6627H119.624C119.359 42.7891 119.239 40.8875 119.267 38.9847V30.0115C119.267 22.6537 115.047 20.0162 110.153 20.0162M0.791992 20.5644L7.87689 44.6595H15.4281L22.513 20.5644H15.9355L11.928 37.7337H11.8639L7.87945 20.5644H0.791992ZM77.15 20.616V44.6595H83.4355V31.1497L90.1847 44.6595H96.6777V20.616H90.2718V33.9935L90.1873 33.9677L83.4995 20.6192L77.15 20.616ZM63.6541 33.8356C64.6458 33.8356 65.5913 33.9516 66.4343 33.9935C66.4343 36.8212 64.8456 39.6747 62.3345 39.6747C60.7971 39.6747 59.6133 38.7075 59.6133 37.0469C59.6133 34.7319 61.407 33.8227 63.6439 33.8227M110.279 33.8227C111.268 33.8227 112.216 33.9387 113.061 33.9806C113.061 36.8084 111.491 39.6618 108.99 39.6618C107.452 39.6618 106.269 38.6946 106.269 37.034C106.269 34.719 108.034 33.8098 110.279 33.8098" fill="#181716"/>
<path d="M120 17.3177C101.267 5.82629 81.0907 0 59.9974 0C38.9042 0 18.7282 5.82629 0 17.3177L0.156302 17.84C19.2407 9.57937 39.5678 5.70055 59.9974 5.70055C80.4271 5.70055 100.762 9.56969 119.841 17.84L120 17.3177Z" fill="#E30613"/>
<rect x="25.623" y="20.958" width="6.40588" height="23.8598" fill="#181716"/>
</svg>
