<svg width="50" height="50" viewBox="0 0 50 50" fill="none" xmlns="http://www.w3.org/2000/svg">
<path d="M12.259 44.2848H8.27699C7.5034 44.2824 6.76216 43.9741 6.21515 43.4271C5.66813 42.8801 5.35978 42.1388 5.35742 41.3652V36.2493C5.35742 36.0125 5.45149 35.7854 5.61893 35.618C5.78637 35.4505 6.01346 35.3564 6.25026 35.3564H14.2858C14.5226 35.3564 14.7497 35.4505 14.9171 35.618C15.0845 35.7854 15.1786 36.0125 15.1786 36.2493V41.3652C15.1763 42.1388 14.8679 42.8801 14.3209 43.4271C13.7739 43.9741 13.0326 44.2824 12.259 44.2848ZM7.14309 37.1421V41.3652C7.14309 41.666 7.26256 41.9544 7.4752 42.167C7.68785 42.3797 7.97626 42.4991 8.27699 42.4991H12.259C12.4079 42.4991 12.5554 42.4698 12.693 42.4128C12.8305 42.3558 12.9555 42.2723 13.0608 42.167C13.1661 42.0617 13.2496 41.9367 13.3066 41.7992C13.3636 41.6616 13.3929 41.5141 13.3929 41.3652V37.1421H7.14309Z" fill="#46C0E7"/>
<path d="M33.5887 37.1421H31.2494C31.1319 37.1428 31.0155 37.1202 30.9067 37.0758C30.7979 37.0314 30.699 36.9659 30.6155 36.8832L29.9905 36.2492H20.0086L19.3837 36.8832C19.3002 36.9659 19.2013 37.0314 19.0925 37.0758C18.9837 37.1202 18.8673 37.1428 18.7497 37.1421H6.25005C5.30287 37.1421 4.39449 36.7658 3.72473 36.0961C3.05498 35.4263 2.67871 34.5179 2.67871 33.5707V24.9995C2.67849 23.9834 3.02494 22.9975 3.66083 22.2049L6.33934 18.8479L9.52676 9.26776C9.94299 8.02307 10.7405 6.94101 11.8062 6.17499C12.8719 5.40897 14.1517 4.99788 15.4641 5.00001H34.5351C35.846 4.99975 37.1238 5.41171 38.1877 6.1776C39.2516 6.94349 40.0478 8.02452 40.4635 9.26776L43.6509 18.8479L46.3294 22.2139C46.7925 22.7936 47.0998 23.482 47.2223 24.2138C47.2486 24.3637 47.2362 24.5179 47.1862 24.6617C47.1362 24.8054 47.0502 24.934 46.9366 25.0352C46.8238 25.1346 46.6877 25.2039 46.541 25.2367C46.3943 25.2695 46.2417 25.2647 46.0973 25.2227L41.0706 23.7496L33.9279 25.7852V32.7672C33.9276 33.8441 34.0994 34.9141 34.4369 35.9368C34.4819 36.0744 34.4929 36.2209 34.4687 36.3637C34.4445 36.5065 34.3859 36.6413 34.2981 36.7564C34.2102 36.8715 34.0956 36.9635 33.9643 37.0245C33.8329 37.0855 33.6887 37.1136 33.544 37.1064L33.5887 37.1421ZM31.6155 35.3564H32.4191C32.2335 34.518 32.1407 33.6616 32.1423 32.8029V25.1424C32.1349 24.942 32.1951 24.7449 32.3134 24.583C32.4316 24.421 32.6009 24.3035 32.794 24.2495L40.8296 21.9639C40.9872 21.9197 41.154 21.9197 41.3117 21.9639L44.642 22.946L42.1599 19.8479C42.0973 19.7627 42.0463 19.6696 42.0081 19.5711L38.7671 9.83918C38.4712 8.95061 37.9032 8.17763 37.1437 7.62963C36.3842 7.08164 35.4716 6.78639 34.5351 6.78568H15.4641C14.5276 6.78639 13.6149 7.08164 12.8554 7.62963C12.0959 8.17763 11.528 8.95061 11.2321 9.83918L8.03572 19.5711C7.99758 19.6696 7.94654 19.7627 7.88394 19.8479L5.09829 23.3299C4.70221 23.7975 4.47847 24.3869 4.46438 24.9995V33.5707C4.46438 34.0443 4.65251 34.4985 4.98739 34.8334C5.32227 35.1683 5.77646 35.3564 6.25005 35.3564H18.3837L19.0087 34.7225C19.0921 34.6397 19.191 34.5743 19.2998 34.5299C19.4086 34.4854 19.5251 34.4629 19.6426 34.4636H30.3566C30.4741 34.4629 30.5906 34.4854 30.6994 34.5299C30.8082 34.5743 30.9071 34.6397 30.9905 34.7225L31.6155 35.3564Z" fill="#46C0E7"/>
<path d="M14.2855 32.6778H8.92851C8.21812 32.6778 7.53683 32.3956 7.03452 31.8933C6.5322 31.391 6.25 30.7097 6.25 29.9993V28.2137C6.25 27.5033 6.5322 26.822 7.03452 26.3197C7.53683 25.8174 8.21812 25.5352 8.92851 25.5352H9.95527L14.6427 26.2316C15.2895 26.3186 15.8823 26.6387 16.3097 27.1319C16.7372 27.6251 16.9698 28.2574 16.964 28.9101V29.9993C16.964 30.7097 16.6818 31.391 16.1795 31.8933C15.6772 32.3956 14.9959 32.6778 14.2855 32.6778ZM8.92851 27.3208C8.69171 27.3208 8.46462 27.4149 8.29718 27.5823C8.12974 27.7498 8.03567 27.9769 8.03567 28.2137V29.9993C8.03567 30.2361 8.12974 30.4632 8.29718 30.6307C8.46462 30.7981 8.69171 30.8922 8.92851 30.8922H14.2855C14.5223 30.8922 14.7494 30.7981 14.9168 30.6307C15.0843 30.4632 15.1784 30.2361 15.1784 29.9993V28.9011C15.1799 28.6818 15.1007 28.4695 14.9558 28.3049C14.8109 28.1402 14.6104 28.0346 14.3927 28.0083L9.75884 27.3208H8.92851Z" fill="#46C0E7"/>
<path d="M29.6242 32.678H20.3744C19.9554 32.6861 19.5469 32.5465 19.2204 32.2837C18.894 32.0209 18.6704 31.6516 18.5887 31.2406L18.053 28.5621C18.0007 28.3033 18.0064 28.0362 18.0697 27.7799C18.133 27.5236 18.2523 27.2846 18.4191 27.0799C18.5908 26.8708 18.8079 26.7035 19.0538 26.5906C19.2998 26.4777 19.5681 26.4221 19.8387 26.4282H30.1599C30.4244 26.4275 30.6858 26.4857 30.9251 26.5984C31.1645 26.7111 31.3758 26.8756 31.5438 27.0799C31.7105 27.2846 31.8299 27.5236 31.8932 27.7799C31.9565 28.0362 31.9621 28.3033 31.9098 28.5621L31.3741 31.2406C31.2936 31.6455 31.0752 32.0101 30.7562 32.2722C30.4371 32.5343 30.0371 32.6777 29.6242 32.678ZM19.803 28.2138L20.3387 30.8924H29.6242L30.1599 28.2138H19.803Z" fill="#46C0E7"/>
<path d="M36.6054 22.8567H13.3916C12.8455 22.8578 12.3063 22.7336 11.8157 22.4937C11.325 22.2538 10.8959 21.9045 10.5614 21.4728C10.2272 21.0119 10.0138 20.4746 9.9405 19.9101C9.8672 19.3456 9.93638 18.7716 10.1417 18.2407L13.0613 10.357C13.245 9.83738 13.5845 9.3871 14.0335 9.06753C14.4824 8.74797 15.0191 8.57468 15.5702 8.57129H34.4268C34.9779 8.57468 35.5146 8.74797 35.9636 9.06753C36.4125 9.3871 36.752 9.83738 36.9357 10.357L39.8464 18.2496C40.0771 18.8503 40.1342 19.5037 40.011 20.1353C39.8879 20.7669 39.5895 21.351 39.1499 21.821C38.8152 22.153 38.418 22.4155 37.9812 22.5933C37.5445 22.771 37.0769 22.8606 36.6054 22.8567ZM15.5702 10.357C15.3893 10.3582 15.213 10.4143 15.0647 10.518C14.9164 10.6216 14.8031 10.7678 14.7398 10.9373L11.8203 18.8568C11.7167 19.1027 11.6771 19.3709 11.7052 19.6363C11.7333 19.9018 11.8282 20.1557 11.981 20.3746C12.1473 20.5907 12.361 20.7658 12.6055 20.8865C12.85 21.0072 13.1189 21.0703 13.3916 21.071H36.6054C37.0782 21.069 37.5309 20.8795 37.8643 20.5442C38.0724 20.3186 38.2117 20.0382 38.2654 19.7359C38.3192 19.4337 38.2854 19.1225 38.1678 18.8389L35.2572 10.9462C35.1953 10.7751 35.0826 10.6269 34.9342 10.5216C34.7859 10.4163 34.6088 10.3589 34.4268 10.357H15.5702Z" fill="#46C0E7"/>
<path d="M46.8735 20.1776H45.0878C44.259 20.1776 43.4642 19.8483 42.8782 19.2623C42.2921 18.6763 41.9629 17.8814 41.9629 17.0527C41.9629 16.2239 42.2921 15.429 42.8782 14.843C43.4642 14.257 44.259 13.9277 45.0878 13.9277H46.8735C47.7023 13.9277 48.4971 14.257 49.0831 14.843C49.6692 15.429 49.9984 16.2239 49.9984 17.0527C49.9984 17.8814 49.6692 18.6763 49.0831 19.2623C48.4971 19.8483 47.7023 20.1776 46.8735 20.1776ZM45.0878 15.7134C44.7326 15.7134 44.392 15.8545 44.1408 16.1057C43.8897 16.3568 43.7486 16.6975 43.7486 17.0527C43.7486 17.4078 43.8897 17.7485 44.1408 17.9997C44.392 18.2508 44.7326 18.3919 45.0878 18.3919H46.8735C47.2287 18.3919 47.5693 18.2508 47.8205 17.9997C48.0716 17.7485 48.2127 17.4078 48.2127 17.0527C48.2127 16.6975 48.0716 16.3568 47.8205 16.1057C47.5693 15.8545 47.2287 15.7134 46.8735 15.7134H45.0878Z" fill="#46C0E7"/>
<path d="M4.91059 20.1776H3.12492C2.29614 20.1776 1.50131 19.8483 0.915269 19.2623C0.329232 18.6763 0 17.8814 0 17.0527C0 16.2239 0.329232 15.429 0.915269 14.843C1.50131 14.257 2.29614 13.9277 3.12492 13.9277H4.91059C5.73938 13.9277 6.53421 14.257 7.12025 14.843C7.70629 15.429 8.03552 16.2239 8.03552 17.0527C8.03552 17.8814 7.70629 18.6763 7.12025 19.2623C6.53421 19.8483 5.73938 20.1776 4.91059 20.1776ZM3.12492 15.7134C2.76973 15.7134 2.42909 15.8545 2.17793 16.1057C1.92677 16.3568 1.78567 16.6975 1.78567 17.0527C1.78567 17.4078 1.92677 17.7485 2.17793 17.9997C2.42909 18.2508 2.76973 18.3919 3.12492 18.3919H4.91059C5.26579 18.3919 5.60643 18.2508 5.85759 17.9997C6.10875 17.7485 6.24985 17.4078 6.24985 17.0527C6.24985 16.6975 6.10875 16.3568 5.85759 16.1057C5.60643 15.8545 5.26579 15.7134 4.91059 15.7134H3.12492Z" fill="#46C0E7"/>
<path d="M40.1774 36.2496C40.0599 36.2503 39.9434 36.2278 39.8346 36.1833C39.7259 36.1389 39.6269 36.0734 39.5435 35.9907L37.3114 33.7586C37.2282 33.6753 37.1621 33.5765 37.1171 33.4677C37.072 33.359 37.0488 33.2424 37.0488 33.1247C37.0488 33.0069 37.072 32.8904 37.1171 32.7816C37.1621 32.6728 37.2282 32.574 37.3114 32.4908C37.3947 32.4075 37.4935 32.3415 37.6022 32.2964C37.711 32.2514 37.8276 32.2282 37.9453 32.2282C38.063 32.2282 38.1796 32.2514 38.2884 32.2964C38.3972 32.3415 38.496 32.4075 38.5792 32.4908L40.1774 34.0979L44.0077 30.2587C44.1758 30.0905 44.4038 29.9961 44.6416 29.9961C44.8793 29.9961 45.1074 30.0905 45.2755 30.2587C45.4436 30.4268 45.5381 30.6548 45.5381 30.8926C45.5381 31.1303 45.4436 31.3584 45.2755 31.5265L40.8113 35.9907C40.7279 36.0734 40.629 36.1389 40.5202 36.1833C40.4114 36.2278 40.2949 36.2503 40.1774 36.2496Z" fill="#46C0E7"/>
<path d="M41.0706 44.2828C40.9907 44.2958 40.9093 44.2958 40.8295 44.2828C39.2875 43.8489 37.8504 43.1045 36.6064 42.0953C36.0212 41.6346 35.4829 41.1172 34.9993 40.5507C34.4765 39.9467 34.0159 39.2917 33.6243 38.5954C32.6326 36.8265 32.1216 34.8287 32.1422 32.8009V25.1404C32.1348 24.94 32.1951 24.7429 32.3133 24.5809C32.4315 24.419 32.6009 24.3015 32.794 24.2475L40.8295 21.9619C40.9872 21.9177 41.154 21.9177 41.3116 21.9619L49.3471 24.2475C49.5403 24.3015 49.7096 24.419 49.8278 24.5809C49.9461 24.7429 50.0063 24.94 49.9989 25.1404V32.8009C49.998 34.9175 49.4313 36.9955 48.3576 38.8195C47.2839 40.6436 45.7421 42.1476 43.8919 43.1756C43.0798 43.6477 42.2134 44.0195 41.3116 44.2828C41.2318 44.2958 41.1504 44.2958 41.0706 44.2828ZM33.9279 25.8189V32.8009C33.923 34.5244 34.366 36.2197 35.2136 37.7204C35.5492 38.3102 35.9409 38.8664 36.3832 39.3811C36.7922 39.8698 37.2499 40.3155 37.7492 40.7114C38.7334 41.5113 39.8605 42.1173 41.0706 42.4971C41.7488 42.2683 42.4011 41.9691 43.0169 41.6042C44.5874 40.7312 45.8968 39.4553 46.8102 37.908C47.7235 36.3606 48.2078 34.5977 48.2132 32.8009V25.8189L41.0706 23.7475L33.9279 25.8189Z" fill="#46C0E7"/>
</svg>
