<svg width="50" height="50" viewBox="0 0 50 50" fill="none" xmlns="http://www.w3.org/2000/svg">
<path d="M37.9105 41.065C37.7802 41.0658 37.651 41.0408 37.5303 40.9915C37.4097 40.9422 37.2999 40.8696 37.2074 40.7778L34.7317 38.3021C34.5452 38.1156 34.4404 37.8627 34.4404 37.599C34.4404 37.3353 34.5452 37.0824 34.7317 36.8959C34.9181 36.7094 35.1711 36.6046 35.4348 36.6046C35.6985 36.6046 35.9514 36.7094 36.1379 36.8959L37.9105 38.6784L42.1589 34.4201C42.2512 34.3278 42.3608 34.2546 42.4815 34.2046C42.6021 34.1546 42.7314 34.1289 42.862 34.1289C42.9926 34.1289 43.1219 34.1546 43.2425 34.2046C43.3632 34.2546 43.4728 34.3278 43.5651 34.4201C43.6574 34.5125 43.7307 34.6221 43.7807 34.7427C43.8306 34.8634 43.8563 34.9927 43.8563 35.1233C43.8563 35.2538 43.8306 35.3831 43.7807 35.5038C43.7307 35.6244 43.6574 35.734 43.5651 35.8264L38.6136 40.7778C38.5211 40.8696 38.4114 40.9422 38.2907 40.9915C38.17 41.0408 38.0408 41.0658 37.9105 41.065Z" fill="#46C0E7"/>
<path d="M30.6117 42.0575H9.19159C8.40366 42.0575 7.64801 41.7445 7.09086 41.1873C6.53371 40.6302 6.2207 39.8745 6.2207 39.0866V15.3195C6.22141 15.1503 6.26547 14.984 6.34869 14.8367C6.4319 14.6893 6.55149 14.5657 6.69604 14.4777L6.78517 14.4183L23.6202 5.2977C24.055 5.06195 24.5417 4.93848 25.0363 4.93848C25.5309 4.93848 26.0177 5.06195 26.4525 5.2977L43.2875 14.4183L43.3766 14.4777C43.5212 14.5657 43.6408 14.6893 43.724 14.8367C43.8072 14.984 43.8512 15.1503 43.852 15.3195V27.3417C43.852 27.4954 43.8162 27.6471 43.7474 27.7846C43.6786 27.9221 43.5788 28.0417 43.4558 28.1339C43.334 28.2246 43.1929 28.2861 43.0435 28.3136C42.8941 28.3411 42.7404 28.3338 42.5943 28.2924L38.9005 27.2031L30.9781 29.451V37.205C30.9781 37.4229 30.9781 37.6408 30.9781 37.8685C31.0301 38.8362 31.2133 39.7924 31.5228 40.7107C31.5719 40.8596 31.5849 41.0181 31.5608 41.173C31.5367 41.328 31.4761 41.475 31.3841 41.602C31.3003 41.7333 31.1866 41.843 31.0524 41.9222C30.9182 42.0013 30.7672 42.0477 30.6117 42.0575ZM8.2013 15.9335V39.0866C8.2013 39.3492 8.30563 39.6011 8.49135 39.7868C8.67706 39.9726 8.92895 40.0769 9.19159 40.0769H29.3144C29.1547 39.4064 29.0488 38.7242 28.9975 38.0369C28.9975 37.7893 28.9975 37.5219 28.9975 37.2447V28.7479C28.9893 28.5256 29.0561 28.3071 29.1873 28.1274C29.3184 27.9478 29.5062 27.8175 29.7204 27.7576L38.6331 25.2225C38.808 25.1734 38.993 25.1734 39.1679 25.2225L41.8714 25.985V15.9335L25.5018 7.02082C25.3585 6.94453 25.1987 6.90462 25.0363 6.90462C24.874 6.90462 24.7142 6.94453 24.5709 7.02082L8.2013 15.9335Z" fill="#46C0E7"/>
<path d="M47.05 18.3383C46.5623 18.3359 46.0828 18.2134 45.6536 17.9818L42.3857 16.2191L42.2965 16.1597L25.4615 7.06875C25.3182 6.99246 25.1584 6.95256 24.9961 6.95256C24.8338 6.95256 24.6739 6.99246 24.5306 7.06875L4.38802 17.962C4.04476 18.1483 3.66815 18.2651 3.27972 18.3057C2.89129 18.3463 2.49867 18.3099 2.12432 18.1986C1.74996 18.0873 1.40123 17.9033 1.09806 17.6571C0.794896 17.4109 0.543247 17.1073 0.357514 16.7637C0.171609 16.4199 0.0553862 16.0428 0.0155044 15.6539C-0.0243775 15.2651 0.0128661 14.8722 0.125101 14.4978C0.237336 14.1233 0.422356 13.7747 0.669557 13.4719C0.916758 13.1692 1.22128 12.9181 1.56568 12.7332L21.6885 1.83999C22.7038 1.28875 23.8408 1 24.9961 1C26.1514 1 27.2884 1.28875 28.3037 1.83999L48.4364 12.7332C49.1278 13.1049 49.644 13.735 49.8723 14.4861C50.0073 14.9315 50.0357 15.4024 49.9553 15.8608C49.875 16.3193 49.688 16.7524 49.4095 17.1253C49.131 17.4982 48.7688 17.8005 48.3521 18.0077C47.9354 18.215 47.4758 18.3215 47.0104 18.3185L47.05 18.3383ZM25.0357 4.96932C25.53 4.96849 26.0168 5.09103 26.4518 5.32583L43.2868 14.4465L43.376 14.5059L46.5944 16.2389C46.8257 16.3617 47.0962 16.3879 47.3467 16.3118C47.5972 16.2358 47.8074 16.0635 47.9313 15.8329C48.0549 15.6028 48.0826 15.3333 48.0084 15.0829C47.9343 14.8325 47.7642 14.6216 47.5352 14.496L27.3926 3.60272C26.6688 3.21095 25.8587 3.00579 25.0357 3.00579C24.2127 3.00579 23.4026 3.21095 22.6788 3.60272L2.54607 14.496C2.31628 14.6181 2.14383 14.8259 2.06599 15.0742C1.98816 15.3225 2.0112 15.5915 2.13014 15.823C2.19059 15.9406 2.27399 16.045 2.37542 16.1299C2.47686 16.2147 2.59427 16.2785 2.72073 16.3172C2.84719 16.356 2.98013 16.369 3.11171 16.3556C3.2433 16.3421 3.37085 16.3025 3.48685 16.2389L23.6196 5.34564C24.0528 5.10393 24.5396 4.97456 25.0357 4.96932Z" fill="#46C0E7"/>
<path d="M38.9007 49.9788C38.8088 49.9932 38.7153 49.9932 38.6234 49.9788C37.0568 49.5329 35.5862 48.801 34.2859 47.8199L33.9888 47.602C33.6595 47.3431 33.3454 47.0653 33.0481 46.7702C32.1123 45.8727 31.3147 44.8415 30.6813 43.7102C30.2715 42.9777 29.9396 42.2044 29.691 41.4028C29.3044 40.3182 29.0711 39.1849 28.9977 38.0358C28.9977 37.7882 28.9977 37.5208 28.9977 37.2435V28.7468C28.9895 28.5245 29.0564 28.306 29.1875 28.1263C29.3187 27.9467 29.5065 27.8164 29.7207 27.7565L38.6333 25.2213C38.8082 25.1723 38.9932 25.1723 39.1681 25.2213L48.0808 27.7565C48.295 27.8164 48.4828 27.9467 48.6139 28.1263C48.745 28.306 48.8119 28.5245 48.8037 28.7468V37.2435C48.8059 40.427 47.6516 43.5028 45.5555 45.8987C45.3071 46.1905 45.0426 46.4682 44.7633 46.7306C43.1926 48.2505 41.2757 49.3653 39.178 49.9788C39.0861 49.9932 38.9926 49.9932 38.9007 49.9788ZM30.9783 29.4895V37.2435C30.9783 37.4614 30.9783 37.6793 30.9783 37.907C31.0303 38.8747 31.2135 39.8309 31.523 40.7492C31.7358 41.4377 32.0213 42.1017 32.3747 42.7298C32.9092 43.6867 33.576 44.5635 34.3552 45.3343C34.6127 45.5719 34.8702 45.8096 35.1475 46.0275L35.3852 46.2057C36.4459 46.9998 37.635 47.6061 38.9007 47.9982C40.5825 47.4687 42.1205 46.5608 43.3967 45.3442C43.6244 45.1164 43.8522 44.8886 44.0601 44.6411C45.8487 42.5924 46.8307 39.963 46.8231 37.2435V29.4994L38.9007 27.2019L30.9783 29.4895Z" fill="#46C0E7"/>
<path d="M30.611 42.0551H18.1036C17.8409 42.0551 17.589 41.9507 17.4033 41.765C17.2176 41.5793 17.1133 41.3274 17.1133 41.0648V23.2394C17.1133 22.4515 17.4263 21.6959 17.9834 21.1387C18.5406 20.5816 19.2962 20.2686 20.0842 20.2686H29.9871C30.7751 20.2686 31.5307 20.5816 32.0879 21.1387C32.645 21.6959 32.958 22.4515 32.958 23.2394V28.1909C32.9662 28.4132 32.8994 28.6318 32.7682 28.8114C32.6371 28.991 32.4493 29.1213 32.2351 29.1812L30.9774 29.4882V37.2422C30.9774 37.4601 30.9774 37.678 30.9774 37.9057C31.0294 38.8734 31.2126 39.8295 31.5221 40.7479C31.5712 40.8968 31.5842 41.0553 31.5601 41.2102C31.536 41.3652 31.4755 41.5122 31.3834 41.6391C31.2953 41.7631 31.1798 41.8652 31.0458 41.9373C30.9118 42.0094 30.7631 42.0497 30.611 42.0551ZM19.0939 40.0745H29.3137C29.1541 39.404 29.0481 38.7218 28.9968 38.0345C28.9968 37.7869 28.9968 37.5195 28.9968 37.2422V28.7455C28.9886 28.5232 29.0555 28.3047 29.1866 28.125C29.3177 27.9454 29.5055 27.8151 29.7197 27.7552L30.9774 27.4383V23.2394C30.9774 22.9768 30.8731 22.7249 30.6874 22.5392C30.5017 22.3535 30.2498 22.2491 29.9871 22.2491H20.0842C19.8215 22.2491 19.5696 22.3535 19.3839 22.5392C19.1982 22.7249 19.0939 22.9768 19.0939 23.2394V40.0745Z" fill="#46C0E7"/>
</svg>
