<svg width="50" height="50" viewBox="0 0 50 50" fill="none" xmlns="http://www.w3.org/2000/svg">
<path d="M24.6264 49.9898C24.5467 50.0034 24.4653 50.0034 24.3856 49.9898C18.8044 48.3786 13.897 44.9992 10.4013 40.3597C6.90552 35.7201 5.01033 30.0712 5.00061 24.2621V6.27771C4.99321 6.07749 5.05342 5.8806 5.17156 5.71877C5.2897 5.55694 5.45887 5.43959 5.65183 5.38563L24.3856 0.0331317C24.5431 -0.0110439 24.7098 -0.0110439 24.8673 0.0331317L43.601 5.38563C43.794 5.43959 43.9632 5.55694 44.0813 5.71877C44.1994 5.8806 44.2597 6.07749 44.2523 6.27771V24.2621C44.2425 30.0712 42.3473 35.7201 38.8516 40.3597C35.3559 44.9992 30.4485 48.3786 24.8673 49.9898C24.7876 50.0034 24.7061 50.0034 24.6264 49.9898ZM6.78478 6.94677V24.2621C6.79481 29.6395 8.53501 34.8709 11.7481 39.1828C14.9611 43.4948 19.4765 46.6583 24.6264 48.2056C29.7706 46.66 34.2817 43.5019 37.4942 39.1972C40.7067 34.8924 42.4504 29.6691 42.4681 24.2978V6.94677L24.6264 1.8173L6.78478 6.94677Z" fill="#46C0E7"/>
<path d="M24.6265 46.2521C24.5297 46.251 24.4335 46.236 24.341 46.2075C19.7486 44.6563 15.7576 41.7054 12.9286 37.7692C10.0997 33.8331 8.5751 29.1095 8.56897 24.2622V8.9541C8.56157 8.75387 8.62178 8.55698 8.73992 8.39515C8.85805 8.23332 9.02723 8.11597 9.22019 8.06201L24.3856 3.72649C24.5431 3.68232 24.7098 3.68232 24.8673 3.72649L40.0327 8.06201C40.2257 8.11597 40.3949 8.23332 40.513 8.39515C40.6311 8.55698 40.6914 8.75387 40.6839 8.9541V24.2622C40.6778 29.1095 39.1532 33.8331 36.3243 37.7692C33.4954 41.7054 29.5043 44.6563 24.9119 46.2075C24.8194 46.236 24.7233 46.251 24.6265 46.2521ZM10.3531 9.67668V24.2622C10.3522 28.6859 11.7249 33.0006 14.2817 36.6105C16.8385 40.2204 20.4532 42.9472 24.6265 44.4144C28.7997 42.9472 32.4144 40.2204 34.9712 36.6105C37.528 33.0006 38.9007 28.6859 38.8998 24.2622V9.641L24.6265 5.56418L10.3531 9.67668Z" fill="#46C0E7"/>
<path d="M25.518 18.7685H23.7339C23.0317 18.7705 22.343 18.576 21.7455 18.2071C21.1481 17.8383 20.6657 17.3096 20.3529 16.681L19.6749 15.3161C19.4092 14.7939 19.2716 14.216 19.2735 13.6301C19.2735 12.6269 19.672 11.6648 20.3813 10.9555C21.0906 10.2462 22.0527 9.84766 23.0559 9.84766H26.196C26.6927 9.84766 27.1846 9.94549 27.6435 10.1356C28.1024 10.3257 28.5194 10.6043 28.8706 10.9555C29.2218 11.3067 29.5004 11.7237 29.6905 12.1826C29.8806 12.6415 29.9784 13.1334 29.9784 13.6301C29.9803 14.216 29.8427 14.7939 29.577 15.3161L28.899 16.681C28.5871 17.3103 28.1049 17.8395 27.5072 18.2085C26.9096 18.5775 26.2204 18.7715 25.518 18.7685ZM23.0559 11.6318C22.5259 11.6318 22.0176 11.8424 21.6429 12.2171C21.2682 12.5918 21.0576 13.1001 21.0576 13.6301C21.0575 13.9402 21.1309 14.2459 21.2717 14.5222L21.9497 15.8781C22.1136 16.2112 22.3677 16.4915 22.6832 16.6871C22.9986 16.8827 23.3627 16.9857 23.7339 16.9843H25.518C25.8892 16.9857 26.2533 16.8827 26.5687 16.6871C26.8842 16.4915 27.1384 16.2112 27.3022 15.8781L27.9802 14.5222C28.121 14.2459 28.1944 13.9402 28.1943 13.6301C28.1943 13.1001 27.9838 12.5918 27.609 12.2171C27.2343 11.8424 26.726 11.6318 26.196 11.6318H23.0559Z" fill="#46C0E7"/>
<path d="M24.6255 41.0705C24.2151 41.0708 23.8096 40.9807 23.438 40.8064C23.0664 40.6322 22.7378 40.3782 22.4756 40.0625L19.5049 36.4941C18.7829 35.6203 18.3857 34.5233 18.3809 33.3897C18.3797 33.0909 18.4036 32.7925 18.4523 32.4976L20.8341 19.1788C20.9386 18.5472 21.2661 17.9739 21.7571 17.5631C22.2482 17.1523 22.8702 16.9311 23.5104 16.9397H25.812C26.4547 16.9318 27.0789 17.1555 27.5703 17.5699C28.0617 17.9843 28.3875 18.5618 28.4882 19.1967L30.8701 32.4976C30.9187 32.7925 30.9426 33.0909 30.9414 33.3897C30.9403 34.524 30.5427 35.6221 29.8174 36.4941L26.8468 40.0625C26.5769 40.3876 26.2368 40.6473 25.852 40.8219C25.4673 40.9965 25.0479 41.0815 24.6255 41.0705ZM23.4747 18.7685C23.2609 18.7657 23.0532 18.8399 22.8894 18.9774C22.7257 19.1149 22.6168 19.3067 22.5826 19.5178L20.2007 32.8991C20.1725 33.0761 20.1575 33.255 20.1561 33.4343C20.1527 34.1526 20.4057 34.8486 20.8698 35.3969L23.8404 38.9652C23.9383 39.0741 24.058 39.1611 24.1917 39.2207C24.3254 39.2803 24.4702 39.3111 24.6166 39.3111C24.7629 39.3111 24.9077 39.2803 25.0414 39.2207C25.1751 39.1611 25.2948 39.0741 25.3927 38.9652L28.3633 35.3969C28.8274 34.8486 29.0805 34.1526 29.077 33.4343C29.0904 33.2561 29.0904 33.0772 29.077 32.8991L26.6594 19.5357C26.6291 19.3213 26.5219 19.1253 26.3578 18.9841C26.1937 18.843 25.9838 18.7663 25.7673 18.7685H23.4747Z" fill="#46C0E7"/>
</svg>
