<svg width="119" height="54" viewBox="0 0 119 54" fill="none" xmlns="http://www.w3.org/2000/svg">
<path d="M5.46641 41.0422L9.10613 50.0252L9.59949 51.3005H9.64603L10.1208 50.0252L13.7605 41.0422H15.706V53.7487H14.1328V45.3429L14.1701 43.9745L14.1235 43.9559L13.6302 45.2405L10.1859 53.7487H8.96649L5.54088 45.3056L5.04751 44.021L5.01028 44.0397L5.02889 45.408V53.7487H3.48364V41.0422H5.44779H5.46641Z" fill="#4191CE"/>
<path d="M17.6886 48.4335C17.6886 45.2685 19.0756 43.4812 21.8589 43.4812C24.2699 43.4812 25.8431 44.9054 25.8431 48.1449C25.8431 48.3962 25.8244 48.7034 25.8058 48.9268H19.3362C19.42 51.5891 20.4068 52.5014 22.5757 52.5014C23.5903 52.5014 24.4561 52.278 25.3218 51.8591L25.5079 53.2181C24.6608 53.6743 23.609 53.9629 22.3895 53.9629C19.0663 53.9629 17.6979 52.2128 17.6979 48.4335H17.6886ZM24.363 47.8191C24.3257 45.6874 23.3297 44.8682 21.8682 44.8682C20.1554 44.8682 19.3921 45.8177 19.2897 47.8191H24.3537H24.363Z" fill="#4191CE"/>
<path d="M34.0905 53.7486L33.8857 52.6967L33.8392 52.6781C33.2155 53.5066 32.2102 53.9534 30.8604 53.9534C28.1329 53.9534 26.9786 52.2964 26.9786 48.6846C26.9786 45.259 28.1795 43.4624 30.879 43.4624C31.9961 43.4624 33.0107 43.8534 33.7275 44.5981L33.7647 44.5795L33.7275 43.2204V40.3719L35.3379 40.2695V53.7393H34.0998L34.0905 53.7486ZM33.7182 46.1061C33.29 45.408 32.3963 44.9518 31.3072 44.9518C29.3431 44.9518 28.6263 46.0037 28.6263 48.7498C28.6263 51.4959 29.2686 52.6129 31.2886 52.6129C32.6942 52.6129 33.4203 51.9148 33.7089 51.3749V46.1061H33.7182Z" fill="#4191CE"/>
<path d="M38.9035 41.9546C38.2054 41.9546 37.8702 41.7312 37.8702 41.0889C37.8702 40.5303 38.2054 40.2231 38.9035 40.2231C39.6017 40.2231 39.9368 40.5303 39.9368 41.0889C39.9368 41.6846 39.6017 41.9546 38.9035 41.9546ZM38.0937 53.7488V43.6953L39.7041 43.6115V53.7488H38.0937Z" fill="#4191CE"/>
<path d="M48.5843 45.436C47.9885 45.166 47.2624 44.9798 46.5363 44.9798C44.3488 44.9798 43.5389 46.0317 43.5389 48.6382C43.5389 51.4867 44.5722 52.5385 46.5084 52.5385C47.309 52.5385 48.0537 52.3338 48.6587 51.9614L48.7797 53.2833C48.184 53.6928 47.2345 53.9814 46.1733 53.9814C43.3434 53.9814 41.882 52.3524 41.882 48.6382C41.882 45.2312 43.2038 43.4998 46.2198 43.4998C47.1135 43.4998 48.035 43.7045 48.696 43.9931L48.5936 45.436H48.5843Z" fill="#4191CE"/>
<path d="M55.9757 52.5198L55.9291 52.5012C55.3334 53.3669 54.2349 53.9068 52.9317 53.9068C51.0886 53.9068 49.8319 52.9387 49.8319 50.6674C49.8319 48.7684 51.0514 47.5955 53.4623 47.5955C54.328 47.5955 55.1565 47.7631 55.7802 47.9865V46.9904C55.7802 45.3987 55.0727 44.8401 53.4251 44.8401C52.3546 44.8401 51.4889 45.0263 50.5952 45.4545L50.4463 44.114C51.4144 43.6765 52.4942 43.4531 53.7043 43.4531C56.3666 43.4531 57.3627 44.5702 57.3627 47.2325V53.7579H56.1432L55.9943 52.5198H55.9757ZM55.7523 49.1501C55.5009 49.0011 54.7562 48.7777 53.7323 48.7777C52.0567 48.7777 51.3213 49.4573 51.3213 50.6581C51.3213 52.1009 52.187 52.5943 53.3506 52.5943C54.6073 52.5943 55.743 51.7472 55.743 50.9001V49.1501H55.7523Z" fill="#4191CE"/>
<path d="M59.8195 53.7488V40.3814L61.4299 40.2791V53.7488H59.8195Z" fill="#4191CE"/>
<path d="M76.5486 42.9784C75.8877 42.6713 74.901 42.4572 73.8863 42.4572C71.2054 42.4572 70.0698 43.6394 70.0698 47.2884C70.0698 51.1888 71.224 52.4082 73.9329 52.4082C74.9662 52.4082 75.8505 52.1662 76.5952 51.7938L76.8186 53.2553C76.018 53.6649 74.8358 54 73.7188 54C69.9581 54 68.2452 51.9148 68.2452 47.2884C68.2452 42.9133 69.9767 40.8281 73.8026 40.8281C74.8545 40.8281 76.0739 41.0981 76.7721 41.4239L76.5486 42.9878V42.9784Z" fill="#4191CE"/>
<path d="M77.7491 48.4335C77.7491 45.2685 79.1361 43.4812 81.9194 43.4812C84.3304 43.4812 85.9035 44.9054 85.9035 48.1449C85.9035 48.3962 85.8849 48.7034 85.8663 48.9268H79.3874C79.4712 51.5891 80.4579 52.5014 82.6269 52.5014C83.6415 52.5014 84.5072 52.278 85.373 51.8591L85.5591 53.2181C84.712 53.6743 83.6601 53.9629 82.4407 53.9629C79.1175 53.9629 77.7491 52.2128 77.7491 48.4335ZM84.4235 47.8191C84.3862 45.6874 83.3902 44.8682 81.9287 44.8682C80.2159 44.8682 79.4526 45.8177 79.3502 47.8191H84.4142H84.4235Z" fill="#4191CE"/>
<path d="M93.862 53.7485V47.0742C93.862 45.5848 93.0615 44.9518 91.5721 44.9518C90.7064 44.9518 89.6917 45.3614 89.217 46.0874V53.7485H87.6066V43.6858L88.7608 43.602L89.0308 44.6725H89.0774C89.7755 43.9092 90.8739 43.4717 92.0096 43.4717C94.1413 43.4717 95.4538 44.6725 95.4538 47.0835V53.7578H93.862V53.7485Z" fill="#4191CE"/>
<path d="M99.7826 44.9053V51.1049C99.7826 52.1568 100.341 52.5757 101.253 52.5757C101.542 52.5757 101.896 52.5292 102.1 52.4361L102.203 53.6555C101.896 53.8045 101.337 53.9069 100.797 53.9069C99.0658 53.9069 98.1722 52.9388 98.1722 51.1422V44.8867H96.7665V43.63H98.228L98.5352 41.126L99.7919 40.9863V43.63H102.287V44.8867H99.7919L99.7826 44.9053Z" fill="#4191CE"/>
<path d="M103.004 48.4335C103.004 45.2685 104.391 43.4812 107.174 43.4812C109.585 43.4812 111.158 44.9054 111.158 48.1449C111.158 48.3962 111.14 48.7034 111.121 48.9268H104.642C104.726 51.5891 105.713 52.5014 107.882 52.5014C108.896 52.5014 109.762 52.278 110.628 51.8591L110.814 53.2181C109.967 53.6743 108.915 53.9629 107.696 53.9629C104.372 53.9629 103.004 52.2128 103.004 48.4335ZM109.678 47.8191C109.641 45.6874 108.645 44.8682 107.184 44.8682C105.471 44.8682 104.708 45.8177 104.605 47.8191H109.669H109.678Z" fill="#4191CE"/>
<path d="M112.861 53.7487V43.7139L114.146 43.6301L114.286 45.799H114.323C114.947 44.3376 116.054 43.4905 117.423 43.4905C117.795 43.4905 118.149 43.537 118.419 43.6301L118.316 45.2591C118.009 45.1567 117.674 45.1195 117.32 45.1195C115.747 45.1195 114.472 46.46 114.472 48.6289V53.7487H112.861Z" fill="#4191CE"/>
<path d="M23.535 4.94294C23.2185 1.74074 21.487 0 19.1226 0C18.0149 0 16.7768 0.381659 15.4736 1.16359C12.6996 2.82986 10.7541 5.25013 9.27396 8.06137C8.52926 9.4763 8.07313 10.4444 7.33774 12.0921C7.56115 12.4272 7.75663 12.7157 7.91488 12.9392C8.77129 14.1586 12.2155 20.2 12.2155 20.2L6.6582 21.8756C10.3724 20.7864 13.798 19.8183 17.6798 18.664C18.1359 18.5244 18.6851 18.3289 18.9551 17.9845C21.9897 14.1772 24.0283 9.94174 23.535 4.95225V4.94294Z" fill="url(#paint0_linear_793_3647)"/>
<path d="M7.91476 12.9299C7.75651 12.7065 7.56102 12.4086 7.33761 12.0828C7.30038 12.1759 7.25383 12.2596 7.2166 12.3527C6.88148 13.0974 3.51172 22.6016 3.51172 22.6016H4.15402C5.01043 22.3503 5.83891 22.1083 6.65808 21.8663L12.2154 20.1907C12.2154 20.1907 8.77116 14.1493 7.91476 12.9299Z" fill="#037BC0"/>
<path d="M4.44201 22.5364L6.6575 21.8662C5.83833 22.1082 5.00985 22.3503 4.15344 22.6109C4.24653 22.5923 4.34893 22.5644 4.44201 22.5364Z" fill="#037BC0"/>
<path d="M7.21646 12.3529C7.25369 12.2598 7.30023 12.176 7.33747 12.0829C6.36005 10.6307 4.89858 8.42456 3.89323 7.48438C2.48761 6.16254 0.663098 6.23701 0.113882 9.11341C0.0673383 9.37405 0.0207945 9.64401 0.0114858 9.91396C-0.109528 14.1867 0.728259 17.5564 2.40383 21.8571C2.81342 22.639 3.39056 22.7786 4.13526 22.6204H3.51157C3.51157 22.6204 6.88134 13.1069 7.21646 12.3622V12.3529Z" fill="#4191CE"/>
<path d="M30.255 27.3306C28.0954 23.0765 24.2881 20.7213 19.8944 19.2226C19.7641 19.1761 19.6244 19.1575 19.4848 19.1575C19.1683 19.1575 18.8239 19.2412 18.5167 19.325C15.5379 20.1814 12.4102 21.1216 12.4102 21.1216C12.4102 21.1216 12.6615 27.2561 12.6522 28.2428C12.6522 28.4941 12.6522 28.9037 12.6522 29.4064C14.1695 30.4117 15.8916 31.3985 17.2135 32.1432C19.8478 33.6326 22.6405 34.5728 25.731 34.489C30.2829 34.3587 32.2936 31.3333 30.255 27.3212V27.3306Z" fill="url(#paint1_linear_793_3647)"/>
<path d="M12.6432 28.252C12.6432 27.2746 12.4012 21.1309 12.4012 21.1309L9.58992 21.9314C8.03536 22.3875 6.4901 22.8344 4.93554 23.2812L3.99536 23.7652C3.99536 23.7652 10.3625 27.889 12.3732 29.2388C12.4663 29.3039 12.5594 29.3598 12.6525 29.425C12.6525 28.9223 12.6525 28.5034 12.6525 28.2614L12.6432 28.252Z" fill="#00A671"/>
<path d="M4.00538 23.7654L4.94556 23.2813C6.50012 22.8345 4.61976 23.3558 4.61976 23.3558C3.83782 23.6537 3.391 24.0725 3.54925 24.9569C4.6663 28.3546 5.78335 31.6964 8.20362 34.6566C8.35256 34.8428 8.52943 35.0103 8.7156 35.1686C10.6798 36.9 11.983 36.8628 12.467 34.3029C12.6718 33.1951 12.6811 30.9238 12.6625 29.4344C12.5694 29.3785 12.4763 29.3134 12.3833 29.2482C10.3819 27.8984 4.00538 23.7747 4.00538 23.7747V23.7654Z" fill="#52BD98"/>
<path d="M42.6089 33.2045C40.5517 33.2045 38.6527 32.7111 37.1074 31.8733L37.6287 28.4384C39.1926 29.2669 40.803 29.7416 42.5623 29.7416C44.5079 29.7416 45.355 29.0342 45.355 27.7961C45.355 25.0035 37.1819 26.1857 37.1819 20.2374C37.1819 17.2307 39.1274 14.7825 43.6235 14.7825C45.355 14.7825 47.226 15.1362 48.6037 15.704L48.1104 19.0738C46.6396 18.5991 45.1688 18.3198 43.819 18.3198C41.6129 18.3198 41.0264 19.0738 41.0264 20.0233C41.0264 22.7973 49.1995 21.5127 49.1995 27.5355C49.1995 31.0449 46.7606 33.1952 42.6089 33.1952V33.2045Z" fill="#002F87"/>
<path d="M58.9918 31.5009L58.9173 31.4729C58.0423 32.5155 56.6646 33.1113 55.0263 33.1113C52.2988 33.1113 50.5674 31.5753 50.5674 28.3452C50.5674 25.6922 52.4198 23.8677 55.6872 23.8677C56.7577 23.8677 57.6793 24.0353 58.4333 24.268V23.4395C58.4333 21.9966 57.6793 21.3264 55.7058 21.3264C54.114 21.3264 53.0714 21.5591 51.7496 22.1083L51.4424 19.1668C52.8853 18.5524 54.5236 18.2173 56.376 18.2173C60.6208 18.2173 62.0916 20.0418 62.0916 23.9794V32.8693H59.2711L58.9825 31.4916L58.9918 31.5009ZM58.4426 26.7162C58.0888 26.5765 57.3721 26.409 56.404 26.409C54.7656 26.409 54.0116 27.0513 54.0116 28.308C54.0116 29.7043 54.8401 30.207 56.0502 30.207C57.2604 30.207 58.4426 29.4529 58.4426 28.5221V26.7255V26.7162Z" fill="#002F87"/>
<path d="M73.0954 32.8693V23.7188C73.0954 22.127 72.2855 21.494 70.7682 21.494C69.8466 21.494 68.8506 21.8942 68.3479 22.5831V32.8693H64.6523V18.5803L67.3053 18.4128L67.8546 19.6415C68.9251 18.72 70.3214 18.2173 71.8108 18.2173C74.8454 18.2173 76.763 20.1349 76.763 23.7188V32.8693H73.0861H73.0954Z" fill="#002F87"/>
<path d="M81.1756 16.9699C79.7513 16.9699 79.0625 16.5696 79.0625 15.406C79.0625 14.3914 79.7513 13.8142 81.1756 13.8142C82.5998 13.8142 83.2607 14.3634 83.2607 15.406C83.2607 16.4486 82.6184 16.9699 81.1756 16.9699ZM79.2766 32.8692V18.5989L83.0466 18.4313V32.8599H79.2766V32.8692Z" fill="#002F87"/>
<path d="M90.5208 21.2613V28.6059C90.5208 29.7229 91.0886 30.1977 92.2243 30.1977C92.6059 30.1977 93.0993 30.1232 93.3599 30.0301L93.574 32.711C93.0807 32.9251 92.1312 33.1113 91.1072 33.1113C88.2401 33.1113 86.8438 31.4543 86.8438 28.7269V21.2613H85.2334V18.5152H86.8624V15.6202L90.5208 15.5364V18.5059H93.723V21.2519H90.5208V21.2613Z" fill="#002F87"/>
<path d="M103.218 31.5009L103.144 31.4729C102.269 32.5155 100.891 33.1113 99.2528 33.1113C96.5254 33.1113 94.7939 31.5753 94.7939 28.3452C94.7939 25.6922 96.6464 23.8677 99.9138 23.8677C100.984 23.8677 101.906 24.0353 102.66 24.268V23.4395C102.66 21.9966 101.906 21.3264 99.9324 21.3264C98.3406 21.3264 97.298 21.5591 95.9762 22.1083L95.669 19.1668C97.1118 18.5524 98.7502 18.2173 100.603 18.2173C104.847 18.2173 106.318 20.0418 106.318 23.9794V32.8693H103.498L103.209 31.4916L103.218 31.5009ZM102.669 26.7162C102.315 26.5765 101.599 26.409 100.631 26.409C98.9922 26.409 98.2382 27.0513 98.2382 28.308C98.2382 29.7043 99.0667 30.207 100.277 30.207C101.487 30.207 102.669 29.4529 102.669 28.5221V26.7255V26.7162Z" fill="#002F87"/>
<path d="M112.964 33.1579C111.232 33.1579 109.668 32.8228 108.458 32.1618L108.84 29.1272C110.022 29.816 111.707 30.1418 112.936 30.1418C114.407 30.1418 115.021 29.5461 115.021 28.699C115.021 26.3997 108.365 27.7309 108.365 22.7042C108.365 20.1256 110.115 18.2732 113.82 18.2732C115.263 18.2732 116.687 18.5618 117.897 19.0551L117.59 22.0619C116.408 21.5685 114.816 21.3265 113.755 21.3265C112.545 21.3265 111.884 21.8012 111.884 22.5366C111.884 24.7148 118.447 23.4116 118.447 28.3639C118.447 31.231 116.855 33.1486 112.973 33.1486L112.964 33.1579Z" fill="#002F87"/>
<defs>
<linearGradient id="paint0_linear_793_3647" x1="17.2143" y1="18.8316" x2="11.2753" y2="2.49474" gradientUnits="userSpaceOnUse">
<stop stop-color="#1DADCB"/>
<stop offset="0.39" stop-color="#1EAAC9"/>
<stop offset="0.59" stop-color="#24A2C4"/>
<stop offset="0.75" stop-color="#2F95BC"/>
<stop offset="0.89" stop-color="#3D82B0"/>
<stop offset="0.94" stop-color="#4579AA"/>
</linearGradient>
<linearGradient id="paint1_linear_793_3647" x1="18.0978" y1="19.0551" x2="24.1019" y2="35.5595" gradientUnits="userSpaceOnUse">
<stop stop-color="#8AC440"/>
<stop offset="0.38" stop-color="#92C740"/>
<stop offset="0.63" stop-color="#7FBA41"/>
<stop offset="1" stop-color="#5DA344"/>
</linearGradient>
</defs>
</svg>
