<svg width="18" height="19" viewBox="0 0 18 19" fill="none" xmlns="http://www.w3.org/2000/svg">
<path d="M5.4821 8.94807L5.00602 12.298C4.98108 12.4757 5.03437 12.6553 5.15222 12.7902C5.26992 12.9251 5.44034 13.0017 5.61888 13H5.6944L9.08546 12.5772V12.577C9.22097 12.5599 9.34679 12.4977 9.44298 12.4006L16.1473 5.65393C16.6788 5.1571 16.9865 4.46458 16.9996 3.73522C17.0127 3.0059 16.7301 2.30261 16.2167 1.7869C15.7035 1.27119 15.0035 0.987279 14.2777 1.00044C13.5519 1.01361 12.8626 1.32273 12.3681 1.85661L5.65536 8.59929C5.56146 8.69364 5.50047 8.81606 5.48181 8.94821L5.4821 8.94807ZM6.66691 9.32578L13.2304 2.72678C13.6031 2.40349 14.1136 2.29252 14.5858 2.43212C15.0582 2.57172 15.4275 2.94285 15.5665 3.41747C15.7054 3.89194 15.595 4.40493 15.2732 4.77934L8.71808 11.3783L6.33218 11.674L6.66691 9.32578Z" fill="white"/>
<path d="M9.53572 0H2.35709C1.73198 0 1.13243 0.244597 0.690427 0.680187C0.248267 1.11564 0 1.70629 0 2.32228V16.6777C0 17.2937 0.248279 17.8844 0.690427 18.3198C1.13243 18.7554 1.73198 19 2.35709 19H15.6429C16.268 19 16.8676 18.7554 17.3096 18.3198C17.7517 17.8844 18 17.2937 18 16.6777V8.07501C18 7.84882 17.8774 7.63971 17.6786 7.52662C17.4797 7.41338 17.2347 7.41338 17.0357 7.52662C16.8368 7.63971 16.7144 7.84882 16.7144 8.07501V16.6777C16.7144 16.9577 16.6014 17.2263 16.4005 17.4242C16.1996 17.6221 15.9271 17.7333 15.6429 17.7333H2.35709C2.07294 17.7333 1.80044 17.6221 1.59955 17.4242C1.39865 17.2263 1.28565 16.9577 1.28565 16.6777V2.32228C1.28565 2.04234 1.39865 1.77373 1.59955 1.57582C1.80044 1.3779 2.07293 1.26672 2.35709 1.26672H9.53572C9.76546 1.26672 9.97758 1.14597 10.0925 0.949974C10.2073 0.754121 10.2073 0.5126 10.0925 0.316608C9.97758 0.120755 9.76547 3.73898e-06 9.53572 3.73898e-06L9.53572 0Z" fill="white"/>
</svg>
