<svg width="120" height="111" viewBox="0 0 120 111" fill="none" xmlns="http://www.w3.org/2000/svg">
<g clip-path="url(#clip0_793_3680)">
<path fill-rule="evenodd" clip-rule="evenodd" d="M0.00622559 86.4246H119.994V85.6697H0.00622559V86.4246Z" fill="#3B342C"/>
<path fill-rule="evenodd" clip-rule="evenodd" d="M0.00622559 62.4244H119.994V61.6721H0.00622559V62.4244Z" fill="#3B342C"/>
<path fill-rule="evenodd" clip-rule="evenodd" d="M80.6897 39.3876L92.0727 28.0001L92.0571 15.3543L79.4223 15.3502L68.938 25.8359V8.90778L59.9899 0L51.0475 8.90778V25.9195L51.0486 25.9187L40.5338 15.4039L27.8928 15.4055L27.8852 28.0529L39.2079 39.3832L39.2087 39.3805H20.6836L11.929 48.3231L20.6844 57.2697H52.4733L59.9706 49.8249L67.4732 57.274H99.2625L108.019 48.3286L99.2625 39.386L80.6897 39.3876Z" fill="#3B342C"/>
<path fill-rule="evenodd" clip-rule="evenodd" d="M98.8611 40.3382L106.685 48.3257L98.8611 56.3231H67.8654L59.9705 48.4857L52.0813 56.3188H21.0851L13.2595 48.3229L21.0839 40.3338H41.5032L28.8362 27.6596L28.8418 16.3553L40.1397 16.356L51.9992 28.2155V9.30326L59.9898 1.34253L67.9872 9.30326V28.1324L79.815 16.3025L91.1079 16.3044L91.1207 27.6072L78.3969 40.3382H98.8611Z" fill="white"/>
<path fill-rule="evenodd" clip-rule="evenodd" d="M43.2154 42.0674H21.8623L15.6053 48.348L21.8623 54.631H51.2458L57.5829 48.3203L49.4675 48.3163L43.2154 42.0674Z" fill="#0093DD"/>
<path fill-rule="evenodd" clip-rule="evenodd" d="M59.0311 46.5428H50.1435L30.5745 26.9749L30.5877 18.102L39.4579 18.0916L59.0268 37.6582L59.0311 46.5428Z" fill="#0093DD"/>
<path fill-rule="evenodd" clip-rule="evenodd" d="M76.7288 42.0674H98.0805L104.337 48.348L98.0805 54.631H68.6966L62.3599 48.3203L70.4753 48.3163L76.7288 42.0674Z" fill="#0093DD"/>
<path fill-rule="evenodd" clip-rule="evenodd" d="M60.9122 46.5428H69.8003L89.369 26.9749L89.3663 18.0879L80.4847 18.0915L60.9165 37.6581L60.9122 46.5428Z" fill="#0093DD"/>
<path fill-rule="evenodd" clip-rule="evenodd" d="M66.2509 29.8931V10.1025L59.9711 3.84717L53.6918 10.1025V29.8931L59.9754 36.1564L66.2509 29.8931Z" fill="#0093DD"/>
<path fill-rule="evenodd" clip-rule="evenodd" d="M53.3692 69.551C53.1732 69.7766 52.6688 69.803 52.4721 69.6086C51.9969 67.842 50.7375 65.519 47.0411 65.519C43.4855 65.519 39.9011 68.0404 39.9011 73.7794C39.9011 79.7415 43.6254 82.6544 47.2375 82.6544C50.7643 82.6544 52.3045 80.3026 53.0888 78.482C53.3408 78.2317 53.7888 78.3432 53.9283 78.5924C53.7327 80.4718 52.9764 82.3184 52.5849 82.85C52.2497 82.9068 51.9125 83.0183 51.6046 83.1011C50.9887 83.2995 49.0569 83.7735 47.2375 83.7735C44.4654 83.7735 42.0848 83.2139 40.0694 81.8981C37.8008 80.4142 36.0939 77.8649 36.0939 74.1997C36.0939 70.9233 37.5497 68.374 39.6211 66.7813C41.6928 65.2131 44.5217 64.4004 47.349 64.4004C48.9448 64.4004 50.8762 64.6783 52.1929 65.0147C52.5284 65.1003 52.7248 65.1279 52.9764 65.1831C53.0328 65.8278 53.0888 67.4801 53.3691 69.551L53.3692 69.551Z" fill="#3B342C"/>
<path fill-rule="evenodd" clip-rule="evenodd" d="M57.2862 82.5968C56.7818 82.0096 56.4179 80.0778 56.4463 78.3432C56.6147 78.0633 57.0906 78.0333 57.3138 78.2317C57.8173 79.6575 59.3296 82.6544 62.0745 82.6544C64.203 82.6544 65.4049 81.3649 65.4049 79.6575C65.4049 78.0633 64.6498 76.7739 62.5496 75.5983L61.3461 74.9272C59.2463 73.7505 57.3978 72.0436 57.3978 69.5218C57.3978 66.7509 59.47 64.4004 63.5583 64.4004C65.0134 64.4004 66.0772 64.7351 67.3943 64.9871C67.7018 65.603 67.9814 67.4508 67.9814 68.7683C67.8406 69.0191 67.3379 69.0463 67.0859 68.8507C66.6668 67.3956 65.6857 65.519 63.3047 65.519C61.0658 65.519 60.1427 66.9757 60.1427 68.4595C60.1427 69.6362 60.9542 70.8957 62.8012 71.8739L64.5366 72.7998C66.3584 73.7505 68.3726 75.4868 68.3726 78.3141C68.3726 81.5053 65.9393 83.7735 61.8773 83.7735C59.302 83.7735 57.8457 82.9327 57.2862 82.5967L57.2862 82.5968Z" fill="#3B342C"/>
<path fill-rule="evenodd" clip-rule="evenodd" d="M72.7282 82.5968C72.2238 82.0096 71.8603 80.0778 71.889 78.3432C72.0547 78.0633 72.5326 78.0333 72.7545 78.2317C73.2601 79.6575 74.7715 82.6544 77.5153 82.6544C79.6438 82.6544 80.8481 81.3649 80.8481 79.6575C80.8481 78.0633 80.093 76.7739 77.992 75.5983L76.7878 74.9272C74.6875 73.7505 72.8397 72.0436 72.8397 69.5218C72.8397 66.7509 74.9123 64.4004 78.9991 64.4004C80.4541 64.4004 81.5176 64.7351 82.835 64.9871C83.1438 65.603 83.425 67.4508 83.425 68.7683C83.283 69.0191 82.7799 69.0463 82.5263 68.8507C82.1075 67.3956 81.1277 65.519 78.7467 65.519C76.5077 65.519 75.5847 66.9757 75.5847 68.4595C75.5847 69.6362 76.3946 70.8957 78.244 71.8739L79.9802 72.7998C81.7988 73.7505 83.8145 75.4868 83.8145 78.3141C83.8145 81.5053 81.38 83.7735 77.318 83.7735C74.7439 83.7735 73.2889 82.9327 72.7281 82.5967L72.7282 82.5968Z" fill="#3B342C"/>
<path fill-rule="evenodd" clip-rule="evenodd" d="M16.4584 93.6235C15.7061 93.6759 14.9538 93.7108 14.1838 93.7108C13.5015 93.7108 12.8192 93.6759 12.1544 93.6407L12.1368 94.2707C12.872 94.3231 13.2216 94.4806 13.5715 95.1454C13.6943 95.3729 13.7815 95.6182 13.8867 95.8629L17.3683 104.751C17.5431 105.206 17.7354 105.678 17.893 106.133L18.1906 106.151C18.2782 105.871 18.383 105.591 18.4706 105.311C18.5406 105.153 18.5929 104.996 18.6629 104.838L21.847 96.9476C22.2145 96.0205 22.5293 95.1982 22.7393 94.883C23.072 94.3931 23.5792 94.3231 24.1392 94.2707V93.606C23.4916 93.6584 22.8269 93.6936 22.1797 93.6936C21.5674 93.6936 20.9723 93.6584 20.3775 93.6236L20.3599 94.2707C20.6923 94.2707 21.1299 94.2707 21.3746 94.5683C21.4974 94.7083 21.4974 94.9006 21.4974 94.9706C21.4974 95.2506 21.3398 95.6881 21.0947 96.3005C20.8323 97.0528 20.5351 97.7875 20.2376 98.5223L18.4006 103.141L15.8461 96.5804C15.5661 95.863 15.3385 95.2854 15.3385 94.9883C15.3385 94.7958 15.4261 94.6031 15.6013 94.4983C15.8637 94.3059 16.4584 94.2883 16.4584 94.2883V93.6236L16.4584 93.6235Z" fill="#3B342C"/>
<path fill-rule="evenodd" clip-rule="evenodd" d="M29.2654 104.471C29.1954 104.523 29.0378 104.629 28.8455 104.733C28.6179 104.856 28.0931 105.083 27.3932 105.083C27.0609 105.083 26.5009 105.048 25.8362 104.611C25.1539 104.156 24.2964 103.176 24.5239 101.269H28.6179C29.0554 101.269 29.4578 101.322 29.4578 100.429C29.4578 99.3623 28.8103 98.82 28.4779 98.5924C28.198 98.4 27.7256 98.1553 26.9033 98.1553C26.3785 98.1553 25.3986 98.2424 24.4539 99.1871C24.2088 99.4324 24.0164 99.6599 23.8416 99.9571C23.2993 100.902 23.2465 102.039 23.2465 102.372C23.2465 104.471 24.5063 105.521 25.2239 105.888C25.8362 106.186 26.3958 106.203 26.6409 106.203C27.8132 106.203 28.6355 105.678 28.9678 105.416C29.2654 105.188 29.4402 104.979 29.545 104.873L29.2654 104.471H29.2654ZM24.6815 100.587C24.7687 100.307 24.7863 100.272 24.8563 100.115C25.2063 99.4147 25.801 99.0824 26.0462 98.9948C26.3433 98.8724 26.6409 98.8724 26.7633 98.8724C26.9733 98.8724 27.498 98.8724 27.8832 99.3272C27.9879 99.45 28.1803 99.6947 28.1803 100.115C28.1803 100.447 28.0579 100.569 27.7256 100.587H24.6815L24.6815 100.587Z" fill="#3B342C"/>
<path fill-rule="evenodd" clip-rule="evenodd" d="M33.2022 97.9976C32.3975 98.47 32.1523 98.5923 31.1024 98.9947V99.4846C31.4524 99.4846 31.6975 99.5198 31.8547 99.6422C31.9947 99.7822 32.0475 99.9394 32.0647 100.255C32.0999 100.552 32.0999 100.849 32.1175 101.147V103.666C32.0999 104.348 32.1175 104.978 31.9775 105.223C31.82 105.468 31.5052 105.486 31.4524 105.486C31.26 105.503 31.0676 105.503 30.8752 105.521V106.116C31.47 106.081 32.0823 106.028 32.6771 106.028C33.3422 106.028 33.9893 106.081 34.6368 106.116V105.538C33.8493 105.556 33.5522 105.433 33.447 105.013C33.3945 104.751 33.4121 104.296 33.4121 104.296V102.459C33.4294 101.462 33.447 100.797 33.5694 100.377C33.7621 99.7994 34.1992 99.5198 34.7944 99.5198C35.0216 99.5198 35.1967 99.537 35.4068 99.607C35.6167 99.6598 35.6691 99.7122 35.7739 99.7298C35.9315 99.7298 36.0539 99.6422 36.1591 99.397C36.2291 99.2222 36.3338 98.8547 36.3338 98.6799C36.3338 98.1724 35.7039 98.19 35.6515 98.19C34.8292 98.19 34.3393 98.6275 34.1293 98.8375C33.7793 99.1522 33.6222 99.4146 33.4121 99.7994V98.1024L33.2022 97.9976L33.2022 97.9976Z" fill="#3B342C"/>
<path fill-rule="evenodd" clip-rule="evenodd" d="M41.8796 98.4176C41.1625 98.19 40.6374 98.0676 40.0778 98.0676C39.7279 98.0676 38.8532 98.12 38.2233 98.8899C37.7681 99.4323 37.7509 99.9746 37.7509 100.237C37.7509 101.025 38.1181 101.479 38.328 101.707C38.7132 102.126 39.2203 102.442 39.9551 102.932C40.3403 103.194 40.8302 103.509 40.9873 103.946C41.0401 104.104 41.0573 104.314 41.0573 104.349C41.0573 104.576 40.9701 105.188 40.2351 105.451C39.9551 105.556 39.7451 105.556 39.6403 105.556C39.3779 105.556 39.2027 105.503 39.0456 105.433C38.8532 105.363 38.7132 105.241 38.6604 105.188C38.468 105.013 38.3632 104.786 38.328 104.733C38.1357 104.349 38.0481 103.876 38.0133 103.771L37.5057 103.824L37.7333 105.766C37.8209 105.801 38.6956 106.186 39.7279 106.203C40.2703 106.203 40.9002 106.046 41.3373 105.731C41.5997 105.556 41.6873 105.433 41.7749 105.311C41.9497 105.118 42.282 104.733 42.282 103.894C42.2996 102.686 41.4597 102.109 40.4802 101.497C39.8503 101.095 38.9756 100.639 38.9756 99.7994C38.9756 99.2747 39.2903 98.9075 39.6927 98.7676C39.8503 98.6976 40.095 98.6976 40.1302 98.6976C40.6202 98.6976 40.9349 98.9247 41.1101 99.1523C41.3725 99.4499 41.4773 99.7822 41.5649 100.097L42.0373 100.027L41.8796 98.4176L41.8796 98.4176Z" fill="#3B342C"/>
<path fill-rule="evenodd" clip-rule="evenodd" d="M46.4115 97.9975C45.484 98.5223 45.2393 98.6623 44.3118 98.9947L44.2942 99.5022C44.8541 99.4846 45.1517 99.5898 45.2565 100.009C45.2917 100.149 45.3093 100.324 45.3093 100.639V104.156C45.2917 104.663 45.2917 105.031 45.1865 105.206C45.0293 105.486 44.6269 105.503 44.1018 105.521V106.115C44.7141 106.081 45.3441 106.028 45.9564 106.028C46.5687 106.028 47.181 106.063 47.7934 106.115V105.503C47.3386 105.468 47.0939 105.486 46.8663 105.311C46.6739 105.171 46.6739 104.943 46.6739 104.856C46.6563 104.663 46.6563 104.488 46.6563 104.296V99.6598C46.6563 99.4146 46.6563 99.1522 46.6739 98.9074C46.6911 98.6447 46.7087 98.3999 46.7439 98.1376L46.4115 97.9975H46.4115ZM45.2041 94.7783C45.3617 94.9359 45.6064 95.0407 45.834 95.0407C46.3063 95.0407 46.7087 94.656 46.7087 94.1836C46.7087 93.6936 46.3239 93.2913 45.834 93.2913C45.3617 93.2913 44.9593 93.676 44.9593 94.166C44.9593 94.3931 45.0465 94.6208 45.2041 94.7783Z" fill="#3B342C"/>
<path fill-rule="evenodd" clip-rule="evenodd" d="M55.2816 104.384C54.9489 104.663 54.3893 105.206 53.2871 105.206C51.3624 105.206 50.7677 103.526 50.6277 102.966C50.5225 102.599 50.5049 102.301 50.5049 101.899C50.5049 101.514 50.4525 100.132 51.5201 99.2397C52.0448 98.8198 52.6219 98.7674 52.8495 98.7674C53.0418 98.7674 53.5842 98.7846 54.0042 99.2045C54.127 99.3269 54.2317 99.4845 54.2493 99.5369C54.4065 99.7468 54.4593 99.8692 54.5817 99.922C54.5993 99.9392 54.6865 99.9569 54.774 99.9569C55.0888 99.9569 55.5088 99.6421 55.5088 99.3269C55.5088 99.1169 55.2816 98.9073 55.0888 98.7674C54.3193 98.1898 53.3918 98.155 53.0594 98.155C50.4701 98.155 49.5078 100.114 49.2455 100.919C49.0703 101.497 49.0531 102.039 49.0531 102.266C49.0531 103.911 49.8054 104.873 50.2778 105.328C50.9425 105.958 51.6772 106.221 52.5871 106.221C54.3193 106.221 55.1764 105.241 55.614 104.751L55.2816 104.384V104.384Z" fill="#3B342C"/>
<path fill-rule="evenodd" clip-rule="evenodd" d="M58.8159 92.7837C57.7136 93.4484 57.3812 93.5536 56.7161 93.7808L56.6989 94.3059C56.9261 94.2883 57.2584 94.2883 57.4684 94.4631C57.6436 94.6031 57.6436 94.8307 57.6608 95.0406C57.6784 95.2854 57.6784 95.5482 57.696 95.793V103.946C57.6784 104.558 57.6784 105.048 57.5384 105.258C57.3636 105.503 57.0137 105.503 56.4537 105.503V106.115C57.0837 106.081 57.7136 106.028 58.3435 106.028C58.973 106.028 59.5854 106.081 60.2153 106.115V105.521C59.6906 105.503 59.3754 105.503 59.1831 105.293C59.0258 105.101 59.043 104.803 59.043 104.278V100.167C59.9705 99.3969 60.6353 99.2046 61.1952 99.2046C61.9823 99.2046 62.3675 99.6069 62.5246 99.8693C62.7699 100.324 62.7699 100.972 62.7875 101.077C62.8046 101.707 62.8046 102.319 62.8046 102.949C62.7875 103.806 62.7523 104.838 62.7175 105.031C62.6123 105.486 62.2975 105.503 61.8952 105.521C61.79 105.521 61.6675 105.521 61.5452 105.538V106.115C62.1575 106.081 62.7699 106.045 63.3821 106.045C63.9945 106.045 64.6068 106.081 65.2368 106.115V105.538C64.7992 105.538 64.5545 105.521 64.362 105.415C64.1869 105.311 64.1169 105.118 64.1169 104.716C64.1169 103.614 64.1169 102.494 64.1521 101.392C64.1693 100.219 64.1169 99.6597 63.7845 99.1522C63.557 98.8022 62.9274 98.2247 61.8076 98.2247C61.3876 98.2247 61.1252 98.2947 60.4429 98.6446C59.9705 98.9074 59.5154 99.2046 59.0606 99.5021V95.9505C59.0606 95.3206 59.0606 94.6907 59.0958 94.0608C59.113 93.6936 59.1306 93.3084 59.1655 92.9413L58.8159 92.7837V92.7837Z" fill="#3B342C"/>
<path fill-rule="evenodd" clip-rule="evenodd" d="M72.4643 104.471C72.3943 104.523 72.2366 104.629 72.0443 104.733C71.8167 104.856 71.292 105.083 70.592 105.083C70.2597 105.083 69.6997 105.048 69.035 104.611C68.3527 104.156 67.4952 103.176 67.7228 101.269H71.8167C72.2542 101.269 72.6566 101.322 72.6566 100.429C72.6566 99.3623 72.0091 98.82 71.6767 98.5924C71.3968 98.4 70.9244 98.1553 70.1021 98.1553C69.5773 98.1553 68.5975 98.2424 67.6528 99.1871C67.4076 99.4324 67.2152 99.6599 67.0404 99.9571C66.4981 100.902 66.4453 102.039 66.4453 102.372C66.4453 104.471 67.7052 105.521 68.4227 105.888C69.035 106.186 69.5945 106.203 69.8398 106.203C71.012 106.203 71.8343 105.678 72.1667 105.416C72.4643 105.188 72.639 104.979 72.7438 104.873L72.4643 104.471ZM67.8803 100.587C67.9676 100.307 67.9851 100.272 68.0552 100.115C68.4051 99.4147 68.9998 99.0824 69.245 98.9948C69.5421 98.8724 69.8398 98.8724 69.9621 98.8724C70.1721 98.8724 70.6968 98.8724 71.082 99.3272C71.1868 99.45 71.3791 99.6947 71.3791 100.115C71.3791 100.447 71.2568 100.569 70.9244 100.587H67.8803L67.8803 100.587Z" fill="#3B342C"/>
<path fill-rule="evenodd" clip-rule="evenodd" d="M76.4009 97.9976C75.5958 98.47 75.3511 98.5923 74.3011 98.9947V99.4846C74.6511 99.4846 74.8963 99.5198 75.0535 99.6422C75.1935 99.7822 75.2462 99.9394 75.2635 100.255C75.2986 100.552 75.2986 100.849 75.3162 101.147V103.666C75.2986 104.348 75.3162 104.978 75.1763 105.223C75.0187 105.468 74.7035 105.486 74.6511 105.486C74.4588 105.503 74.2664 105.503 74.074 105.521V106.116C74.6687 106.081 75.2811 106.028 75.8758 106.028C76.5409 106.028 77.1881 106.081 77.8356 106.116V105.538C77.0481 105.556 76.7509 105.433 76.6457 105.013C76.5933 104.751 76.6109 104.296 76.6109 104.296V102.459C76.6281 101.462 76.6457 100.797 76.7681 100.377C76.9609 99.7994 77.398 99.5198 77.9928 99.5198C78.2203 99.5198 78.3955 99.537 78.6051 99.607C78.8151 99.6598 78.8679 99.7122 78.9727 99.7298C79.1302 99.7298 79.2526 99.6422 79.3574 99.397C79.4278 99.2222 79.5326 98.8547 79.5326 98.6799C79.5326 98.1724 78.9027 98.19 78.8503 98.19C78.028 98.19 77.538 98.6275 77.328 98.8375C76.9781 99.1522 76.8209 99.4146 76.6109 99.7994V98.1024L76.4009 97.9976L76.4009 97.9976Z" fill="#3B342C"/>
<path fill-rule="evenodd" clip-rule="evenodd" d="M86.6341 101.374C86.6165 102.319 86.6165 103.264 86.5642 104.208C86.3365 104.384 85.5843 105.066 84.5695 105.066C84.4296 105.066 84.0096 105.048 83.6596 104.803C83.2749 104.541 83.0649 104.174 83.0301 103.281C82.9949 102.669 82.995 102.057 82.995 101.462C82.995 100.324 83.0125 99.2221 83.0301 98.1023C81.6827 98.2774 81.4027 98.2598 80.6156 98.2598V98.8898C81.1231 98.8722 81.3855 98.9246 81.5255 99.1697C81.5955 99.3098 81.6127 99.6245 81.6303 100.027V103.054C81.6303 103.946 81.6303 104.943 82.3302 105.625C82.505 105.818 82.7673 106.028 83.3097 106.151C83.6249 106.221 83.6948 106.221 83.8697 106.221C84.2372 106.221 84.6047 106.098 84.7095 106.063C85.637 105.748 86.3893 105.031 86.5818 104.856C86.5466 105.241 86.5118 105.625 86.459 106.028L86.6865 106.238C87.9112 105.905 88.3664 105.835 89.031 105.818L89.0486 105.241C88.5063 105.241 88.0335 105.223 87.9288 104.558C87.9112 104.384 87.9112 104.261 87.9112 103.928C87.9112 103.474 87.9288 103.019 87.9288 102.564C87.9464 101.881 87.9464 101.199 87.964 100.517C87.9812 99.7121 87.9988 98.9246 88.0335 98.1199C86.4766 98.3647 86.2494 98.3474 85.2871 98.3474V98.9598C85.8642 98.977 86.2142 98.9598 86.4241 99.1697C86.6517 99.3969 86.6341 99.8869 86.6341 100.534V101.374V101.374Z" fill="#3B342C"/>
<path fill-rule="evenodd" clip-rule="evenodd" d="M92.5652 97.9453C91.4453 98.61 91.1482 98.7148 90.4482 98.9772V99.4847C90.6758 99.4671 91.0082 99.4671 91.2006 99.6423C91.4453 99.8523 91.4281 100.307 91.4453 100.342C91.4805 100.815 91.4805 101.287 91.4981 101.759V104.104C91.4805 104.856 91.5329 105.258 91.0954 105.433C90.9206 105.486 90.693 105.503 90.2731 105.503L90.2735 106.116C90.903 106.081 91.5329 106.028 92.1453 106.028C92.7752 106.028 93.4051 106.081 94.035 106.116V105.503C93.3527 105.503 93.0028 105.486 92.8976 105.048C92.8452 104.839 92.8452 104.629 92.8452 104.401L92.81 100.115C93.02 99.9395 93.9122 99.1347 95.0146 99.1347C95.2945 99.1347 96.0992 99.2047 96.4144 100.045C96.5544 100.395 96.5544 100.902 96.5715 101.287L96.572 103.999C96.5544 104.279 96.5715 104.541 96.5544 104.821C96.5192 105.451 96.0644 105.451 95.8193 105.486C95.6797 105.503 95.5221 105.503 95.3645 105.503V106.116C95.9769 106.081 96.6067 106.028 97.2191 106.028C97.849 106.028 98.4614 106.081 99.0737 106.116V105.503C98.479 105.486 98.129 105.468 97.989 105.136C97.9014 104.943 97.919 104.629 97.919 104.611V101.129C97.9014 100.097 97.919 99.1171 96.9391 98.5048C96.4144 98.1725 95.8369 98.1553 95.6269 98.1553C95.0674 98.1553 94.7174 98.33 94.2446 98.5748C93.7551 98.8376 93.2827 99.1523 92.8276 99.4671C92.8276 99.0124 92.8452 98.5577 92.8976 98.1025L92.5652 97.9453H92.5652Z" fill="#3B342C"/>
<path fill-rule="evenodd" clip-rule="evenodd" d="M105.425 98.8548C105.232 98.68 104.865 98.3477 104.2 98.2077C103.885 98.1377 103.57 98.1201 103.483 98.1201C102.363 98.1201 101.261 98.6449 100.789 99.7124C100.649 100.045 100.596 100.342 100.596 100.692C100.596 101.549 100.946 102.039 101.156 102.284C101.471 102.634 101.873 102.879 102.311 103.072L100.859 104.419C100.841 104.523 100.841 104.593 100.841 104.646C100.841 105.206 101.279 105.556 101.401 105.678L101.033 106.063C100.491 106.658 100.474 106.658 100.176 107.095C100.071 107.463 100.054 107.62 100.054 107.83C100.054 108.53 100.351 108.968 100.526 109.178C101.313 110.14 102.608 110.157 102.941 110.157C104.655 110.157 105.792 109.265 106.23 108.845C107.157 107.988 107.402 107.008 107.402 106.501C107.402 105.486 106.702 105.031 105.792 104.891C105.53 104.839 105.25 104.839 104.988 104.821C103.903 104.786 102.958 104.839 102.608 104.681C102.538 104.646 102.276 104.523 102.276 104.226C102.276 104.016 102.398 103.859 102.521 103.719C102.713 103.526 102.906 103.352 103.098 103.176C103.5 103.176 104.988 103.246 105.775 102.004C106.107 101.462 106.16 100.902 106.16 100.675C106.16 100.097 105.95 99.6772 105.845 99.5023L107.612 99.5199V98.8548H105.425L105.425 98.8548ZM103.273 98.6624C103.465 98.6449 103.833 98.6624 104.2 99.0124C104.532 99.3272 104.795 99.8347 104.795 100.832C104.795 101.025 104.813 101.882 104.183 102.336C103.885 102.564 103.57 102.582 103.43 102.582C102.993 102.582 102.363 102.372 102.083 101.409C102.031 101.199 101.961 100.919 101.961 100.429C101.961 99.6948 102.171 99.31 102.398 99.0648C102.521 98.9248 102.783 98.68 103.273 98.6624H103.273ZM101.873 105.923C102.013 105.958 102.136 106.011 102.276 106.046C102.433 106.081 103.22 106.168 103.885 106.203C104.83 106.256 105.32 106.256 105.722 106.518C106.02 106.728 106.212 107.095 106.212 107.463C106.212 108.005 105.88 108.408 105.757 108.53C105.478 108.81 104.83 109.212 103.833 109.212C102.905 109.212 102.398 108.968 102.066 108.723C101.821 108.548 101.716 108.425 101.628 108.32C101.523 108.145 101.331 107.813 101.331 107.323C101.331 106.746 101.558 106.361 101.873 105.923L101.873 105.923Z" fill="#3B342C"/>
</g>
<defs>
<clipPath id="clip0_793_3680">
<rect width="120" height="110.157" fill="white"/>
</clipPath>
</defs>
</svg>
