<svg width="120" height="31" viewBox="0 0 120 31" fill="none" xmlns="http://www.w3.org/2000/svg">
<path d="M11.8792 7.40009V3.70007H10.9192V18.6001H11.8792V10.1001C11.8792 7.1001 12.8992 5.1001 14.3392 5.1001C14.8792 5.1001 15.2992 5.30007 15.5992 5.70007V4.1001C15.2392 3.7001 14.8792 3.6001 14.4592 3.6001C13.1992 3.6001 12.2992 5.00009 11.8792 7.40009Z" fill="#003D4C"/>
<path d="M20.2185 3.2998C17.4587 3.2998 15.5388 6.69982 15.5388 11.0998C15.5388 15.4998 17.4587 18.9998 20.2185 18.9998C22.9782 18.9998 24.8381 15.4998 24.8381 11.0998C24.8381 6.69982 22.9782 3.2998 20.2185 3.2998ZM20.2185 17.4998C17.9986 17.4998 16.5587 14.6998 16.5587 11.0998C16.5587 7.49982 17.9986 4.7998 20.2185 4.7998C22.4383 4.7998 23.8782 7.49982 23.8782 11.0998C23.8782 14.6998 22.4383 17.4998 20.2185 17.4998Z" fill="#003D4C"/>
<path d="M33.1175 11.9002C33.1175 15.1002 31.9776 17.6002 30.0577 17.6002C28.1379 17.6002 27.1779 15.7002 27.1779 12.3002V3.7002H26.218V12.5002C26.218 16.6002 27.4779 19.1002 29.7578 19.1002C31.3776 19.1002 32.5775 17.6002 33.1175 14.9002V18.7002H34.0774V3.8002H33.1175V11.9002Z" fill="#003D4C"/>
<path d="M40.7369 3.2998C38.757 3.2998 37.3171 5.29981 36.7772 7.89981V3.59982H35.8173V23.7998L36.7772 23.4998V14.5998C37.3771 17.0998 38.757 18.9998 40.6169 18.9998C43.0167 18.9998 44.9965 15.6998 44.9965 10.9998C44.9366 6.69982 43.1967 3.2998 40.7369 3.2998ZM40.3769 17.4998C38.2171 17.4998 36.7772 14.6998 36.7772 11.0998C36.7772 7.49982 38.2771 4.7998 40.4369 4.7998C42.5967 4.7998 43.9766 7.49982 43.9766 11.0998C44.0366 14.6998 42.5967 17.4998 40.3769 17.4998Z" fill="#003D4C"/>
<path d="M54.5358 10.9999V9.99991C54.5358 5.99991 53.0959 3.3999 50.5761 3.3999C47.7563 3.3999 46.1365 6.79991 46.1365 11.0999C46.1365 15.6999 47.9963 18.9999 50.8161 18.9999C52.196 18.9999 53.4559 18.1999 54.2958 17.0999V15.5999C53.3359 16.8999 52.196 17.5999 50.9361 17.5999C48.5363 17.5999 47.0964 14.9999 47.0964 11.1999V11.0999L54.5358 10.9999ZM50.5161 4.7999C52.556 4.7999 53.5759 6.79989 53.6359 9.69989H47.1564C47.3964 6.79989 48.5963 4.7999 50.5161 4.7999Z" fill="#003D4C"/>
<path d="M8.1594 3.70004V7.80005C7.55944 5.20005 6.17953 3.30005 4.19968 3.30005C1.73987 3.30005 0 6.70006 0 11.0001C0 15.6001 1.97984 19.0001 4.37966 19.0001C6.17952 19.0001 7.55944 17.2 8.1594 14.8V16.5001C8.1594 20.1001 6.83949 22.4001 4.43967 22.4001C2.99978 22.4001 1.85986 21.7 0.899931 20.3V21.9001C1.79986 23.2001 3.11976 23.9001 4.49966 23.9001C7.19945 23.9001 9.11931 21.2 9.11931 16.7V3.70004H8.1594ZM4.61965 17.5001C2.39982 17.5001 0.959948 14.7001 0.959948 11.1001C0.959948 7.60007 2.33982 4.80005 4.49966 4.80005C6.65949 4.80005 8.1594 7.60004 8.1594 11.2C8.1594 14.7 6.77949 17.5001 4.61965 17.5001Z" fill="#003D4C"/>
<path d="M119.271 25.5002C112.671 24.2002 102.292 23.6002 91.553 23.9002C82.6137 24.2002 69.1747 25.1002 55.7957 28.3002C55.3758 28.4002 55.1358 29.0002 55.1958 29.7002C55.2558 30.3002 55.5557 30.7002 55.9157 30.7002C55.9757 30.7002 55.9757 30.7002 56.0357 30.7002C69.2947 27.5002 82.7337 26.5002 91.613 26.3002C102.292 26.0002 112.551 26.6002 119.151 27.8002C119.571 27.9002 119.931 27.5002 119.991 26.9002C120.051 26.2002 119.811 25.6002 119.451 25.5002C119.391 25.5002 119.331 25.5002 119.271 25.5002Z" fill="#F2A900"/>
<path d="M115.671 0L113.031 0.899994V18.6H115.671V0Z" fill="#F2A900"/>
<path d="M111.711 10.2C111.711 5.79998 110.092 3 107.032 3C103.792 3 101.932 6.49999 101.932 10.9C101.932 15.7 104.092 19 107.452 19C109.012 19 110.452 18.2 111.412 17.1V13.7C110.452 14.9 109.252 15.5 108.052 15.5C106.072 15.5 104.872 14.1 104.572 11.8H111.711V10.2ZM104.572 9.5C104.812 7.7 105.652 6.39999 107.092 6.39999C108.532 6.39999 109.312 7.5 109.432 9.5H104.572Z" fill="#F2A900"/>
<path d="M58.7356 10.9C58.7356 8.39999 59.3955 6.79999 60.5954 6.79999C61.6753 6.79999 62.2753 8.10001 62.2753 10.1V18.6H64.9151V10.4C64.9151 8.19999 65.515 6.69998 66.7749 6.69998C67.9148 6.69998 68.4548 7.99999 68.4548 10.4V18.6H71.0946V9.5C71.0946 5.4 69.9547 3 67.8549 3C66.295 3 65.2751 4.19998 64.7351 6.69998C64.3151 4.29998 63.2952 3 61.7953 3C60.2954 3 59.3355 4.19999 58.7356 6.79999V3.69998H56.1558V18.6H58.7955V10.9H58.7356Z" fill="#F2A900"/>
<path d="M76.3741 19.1001C77.934 19.1001 79.1939 17.9001 79.7939 15.5001V18.5001H82.4337V3.6001H79.7939V11.4001C79.7939 14.0001 78.954 15.6001 77.5141 15.6001C76.1342 15.6001 75.4142 14.3001 75.4142 11.6001V3.6001H72.7744V12.5001C72.7144 16.8001 74.0343 19.1001 76.3741 19.1001Z" fill="#F2A900"/>
<path d="M94.6728 19.1001C96.2326 19.1001 97.4926 17.9001 98.0925 15.5001V18.5001H100.732V3.6001H98.0925V11.4001C98.0925 14.0001 97.2526 15.6001 95.8127 15.6001C94.4328 15.6001 93.7129 14.3001 93.7129 11.6001V3.6001H91.0131V12.5001C91.0131 16.8001 92.3329 19.1001 94.6728 19.1001Z" fill="#F2A900"/>
<path d="M90.1736 17.8C89.5136 18.7 88.6736 19.2 87.7136 19.2C85.3736 19.2 84.0536 16.8 84.0536 12.6V0.899994L86.6936 0V3.60001H89.3936V6.89999H86.6936V11.6C86.6936 14.3 87.4136 15.6 88.7936 15.6C89.0936 15.6 89.3336 15.5 89.5736 15.4C89.7536 16.3 89.9336 17.1 90.1736 17.8Z" fill="#F2A900"/>
</svg>
