<svg width="50" height="50" viewBox="0 0 50 50" fill="none" xmlns="http://www.w3.org/2000/svg">
<path d="M49.1059 13.9284H38.3919C38.1551 13.9284 37.928 13.8343 37.7605 13.6668C37.5931 13.4994 37.499 13.2723 37.499 13.0355V11.2498C37.499 9.59228 38.1575 8.00261 39.3296 6.83054C40.5016 5.65846 42.0913 5 43.7489 5C45.4064 5 46.9961 5.65846 48.1682 6.83054C49.3403 8.00261 49.9987 9.59228 49.9987 11.2498V13.0355C49.9987 13.2723 49.9047 13.4994 49.7372 13.6668C49.5698 13.8343 49.3427 13.9284 49.1059 13.9284ZM39.2847 12.1427H48.213V11.2498C48.213 10.0659 47.7427 8.93039 46.9055 8.0932C46.0683 7.256 44.9328 6.78567 43.7489 6.78567C42.5649 6.78567 41.4294 7.256 40.5922 8.0932C39.755 8.93039 39.2847 10.0659 39.2847 11.2498V12.1427Z" fill="#46C0E7"/>
<path d="M33.0349 44.2848H6.24985C4.59228 44.2848 3.00261 43.6263 1.83054 42.4543C0.658464 41.2822 0 39.6925 0 38.035V36.2493C0 36.0125 0.0940665 35.7854 0.261506 35.618C0.428945 35.4505 0.656041 35.3564 0.892835 35.3564H27.6779C27.9147 35.3564 28.1418 35.4505 28.3092 35.618C28.4767 35.7854 28.5707 36.0125 28.5707 36.2493V38.035C28.5707 39.2189 29.0411 40.3544 29.8783 41.1916C30.7155 42.0288 31.8509 42.4991 33.0349 42.4991C33.2717 42.4991 33.4988 42.5932 33.6662 42.7606C33.8337 42.9281 33.9277 43.1552 33.9277 43.392C33.9277 43.6288 33.8337 43.8559 33.6662 44.0233C33.4988 44.1907 33.2717 44.2848 33.0349 44.2848ZM1.78567 37.1421V38.035C1.78567 39.2189 2.256 40.3544 3.0932 41.1916C3.93039 42.0288 5.06587 42.4991 6.24985 42.4991H28.6689C28.0736 41.9179 27.6003 41.2236 27.2768 40.457C26.9533 39.6905 26.7861 38.867 26.7851 38.035V37.1421H1.78567Z" fill="#46C0E7"/>
<path d="M33.0347 44.2848C31.3772 44.2848 29.7875 43.6263 28.6154 42.4542C27.4434 41.2821 26.7849 39.6925 26.7849 38.0349V37.1421H11.6067C11.3699 37.1421 11.1428 37.048 10.9754 36.8806C10.8079 36.7131 10.7139 36.486 10.7139 36.2492V11.2498C10.7139 9.59229 11.3723 8.00261 12.5444 6.83054C13.7165 5.65846 15.3062 5 16.9637 5H43.7488C43.9856 5 44.2127 5.09407 44.3801 5.26151C44.5475 5.42894 44.6416 5.65604 44.6416 5.89284C44.6416 6.12963 44.5475 6.35673 44.3801 6.52417C44.2127 6.6916 43.9856 6.78567 43.7488 6.78567C42.5648 6.78567 41.4293 7.256 40.5921 8.0932C39.7549 8.93039 39.2846 10.0659 39.2846 11.2498V23.6156C39.292 23.816 39.2317 24.0131 39.1135 24.175C38.9953 24.337 38.826 24.4544 38.6328 24.5085L33.9276 25.812V32.8029C33.923 34.3249 34.2646 35.828 34.9267 37.1985C35.5887 38.569 36.5538 39.771 37.7489 40.7134C37.8433 40.784 37.9215 40.8738 37.9785 40.977C38.0354 41.0801 38.0698 41.1942 38.0793 41.3116C38.0932 41.4287 38.0838 41.5473 38.0516 41.6607C38.0194 41.7741 37.9651 41.88 37.8918 41.9723C37.7554 42.1414 37.6093 42.3023 37.4543 42.4544C36.8772 43.0392 36.1888 43.5024 35.4297 43.8168C34.6707 44.1311 33.8563 44.2903 33.0347 44.2848ZM12.4995 35.3564H27.6777C27.9145 35.3564 28.1416 35.4505 28.3091 35.6179C28.4765 35.7853 28.5706 36.0124 28.5706 36.2492V38.0349C28.5695 38.8848 28.811 39.7173 29.2668 40.4347C29.7225 41.152 30.3736 41.7243 31.1434 42.0844C31.9132 42.4445 32.7699 42.5773 33.6126 42.4673C34.4553 42.3573 35.2491 42.009 35.9008 41.4634C34.7115 40.3566 33.7638 39.016 33.117 37.5257C32.4702 36.0354 32.1382 34.4275 32.1419 32.8029V25.1424C32.1345 24.942 32.1948 24.7449 32.313 24.583C32.4312 24.421 32.6006 24.3035 32.7937 24.2495L37.4989 22.946V11.2498C37.4946 10.4277 37.6551 9.61293 37.971 8.85384C38.2869 8.09474 38.7518 7.40668 39.3382 6.83031V6.78567H16.9637C15.7797 6.78567 14.6443 7.256 13.8071 8.0932C12.9699 8.93039 12.4995 10.0659 12.4995 11.2498V35.3564Z" fill="#46C0E7"/>
<path d="M33.0352 14.8208H16.9641C16.7273 14.8208 16.5002 14.7268 16.3328 14.5593C16.1654 14.3919 16.0713 14.1648 16.0713 13.928C16.0713 13.6912 16.1654 13.4641 16.3328 13.2967C16.5002 13.1292 16.7273 13.0352 16.9641 13.0352H33.0352C33.272 13.0352 33.4991 13.1292 33.6665 13.2967C33.8339 13.4641 33.928 13.6912 33.928 13.928C33.928 14.1648 33.8339 14.3919 33.6665 14.5593C33.4991 14.7268 33.272 14.8208 33.0352 14.8208Z" fill="#46C0E7"/>
<path d="M33.0352 20.1782H16.9641C16.7273 20.1782 16.5002 20.0842 16.3328 19.9167C16.1654 19.7493 16.0713 19.5222 16.0713 19.2854C16.0713 19.0486 16.1654 18.8215 16.3328 18.6541C16.5002 18.4866 16.7273 18.3926 16.9641 18.3926H33.0352C33.272 18.3926 33.4991 18.4866 33.6665 18.6541C33.8339 18.8215 33.928 19.0486 33.928 19.2854C33.928 19.5222 33.8339 19.7493 33.6665 19.9167C33.4991 20.0842 33.272 20.1782 33.0352 20.1782Z" fill="#46C0E7"/>
<path d="M29.4638 25.5357H16.9641C16.7273 25.5357 16.5002 25.4416 16.3328 25.2742C16.1654 25.1067 16.0713 24.8796 16.0713 24.6428C16.0713 24.406 16.1654 24.1789 16.3328 24.0115C16.5002 23.8441 16.7273 23.75 16.9641 23.75H29.4638C29.7006 23.75 29.9277 23.8441 30.0951 24.0115C30.2626 24.1789 30.3567 24.406 30.3567 24.6428C30.3567 24.8796 30.2626 25.1067 30.0951 25.2742C29.9277 25.4416 29.7006 25.5357 29.4638 25.5357Z" fill="#46C0E7"/>
<path d="M29.4638 30.8921H16.9641C16.7273 30.8921 16.5002 30.7981 16.3328 30.6306C16.1654 30.4632 16.0713 30.2361 16.0713 29.9993C16.0713 29.7625 16.1654 29.5354 16.3328 29.368C16.5002 29.2005 16.7273 29.1064 16.9641 29.1064H29.4638C29.7006 29.1064 29.9277 29.2005 30.0951 29.368C30.2626 29.5354 30.3567 29.7625 30.3567 29.9993C30.3567 30.2361 30.2626 30.4632 30.0951 30.6306C29.9277 30.7981 29.7006 30.8921 29.4638 30.8921Z" fill="#46C0E7"/>
<path d="M41.0706 44.2828C40.9907 44.2958 40.9093 44.2958 40.8295 44.2828C38.3298 43.574 36.1294 42.0696 34.5617 39.9976C32.9941 37.9257 32.1446 35.3991 32.1422 32.8009V25.1404C32.1348 24.94 32.1951 24.7429 32.3133 24.5809C32.4315 24.419 32.6009 24.3015 32.794 24.2475L40.8295 21.9619C40.9872 21.9177 41.154 21.9177 41.3116 21.9619L49.3471 24.2475C49.5403 24.3015 49.7096 24.419 49.8278 24.5809C49.9461 24.7429 50.0063 24.94 49.9989 25.1404V32.8009C49.995 35.3987 49.145 37.9246 47.5776 39.9963C46.0101 42.0679 43.8105 43.5727 41.3116 44.2828C41.2318 44.2958 41.1504 44.2958 41.0706 44.2828ZM33.9279 25.81V32.8009C33.9233 34.3229 34.2649 35.826 34.9269 37.1965C35.589 38.567 36.5541 39.769 37.7492 40.7114C38.7353 41.5085 39.8618 42.1141 41.0706 42.4971C43.1321 41.853 44.9353 40.5698 46.2193 38.8331C47.5033 37.0965 48.2016 34.9964 48.2132 32.8366V25.8189L41.0706 23.7475L33.9279 25.81Z" fill="#46C0E7"/>
<path d="M40.1774 36.2496C40.0599 36.2503 39.9434 36.2278 39.8346 36.1833C39.7259 36.1389 39.6269 36.0734 39.5435 35.9907L37.3114 33.7586C37.2282 33.6753 37.1621 33.5765 37.1171 33.4677C37.072 33.359 37.0488 33.2424 37.0488 33.1247C37.0488 33.0069 37.072 32.8904 37.1171 32.7816C37.1621 32.6728 37.2282 32.574 37.3114 32.4908C37.3947 32.4075 37.4935 32.3415 37.6022 32.2964C37.711 32.2514 37.8276 32.2282 37.9453 32.2282C38.063 32.2282 38.1796 32.2514 38.2884 32.2964C38.3972 32.3415 38.496 32.4075 38.5792 32.4908L40.1774 34.0979L44.0077 30.2587C44.1758 30.0905 44.4038 29.9961 44.6416 29.9961C44.8793 29.9961 45.1074 30.0905 45.2755 30.2587C45.4436 30.4268 45.5381 30.6548 45.5381 30.8926C45.5381 31.1303 45.4436 31.3584 45.2755 31.5265L40.8113 35.9907C40.7279 36.0734 40.629 36.1389 40.5202 36.1833C40.4114 36.2278 40.2949 36.2503 40.1774 36.2496Z" fill="#46C0E7"/>
</svg>
