<svg width="50" height="50" viewBox="0 0 50 50" fill="none" xmlns="http://www.w3.org/2000/svg">
<path d="M40.2272 36.5719C40.1103 36.5725 39.9944 36.5501 39.8861 36.5059C39.7779 36.4617 39.6795 36.3966 39.5965 36.3142L37.3755 34.0933C37.2927 34.0105 37.227 33.9121 37.1822 33.8039C37.1373 33.6957 37.1143 33.5797 37.1143 33.4626C37.1143 33.3454 37.1373 33.2294 37.1822 33.1212C37.227 33.013 37.2927 32.9146 37.3755 32.8318C37.4584 32.749 37.5567 32.6833 37.6649 32.6384C37.7731 32.5936 37.8891 32.5705 38.0063 32.5705C38.1234 32.5705 38.2394 32.5936 38.3476 32.6384C38.4558 32.6833 38.5542 32.749 38.637 32.8318L40.2272 34.4309L44.0383 30.6109C44.2056 30.4436 44.4325 30.3496 44.6691 30.3496C44.9056 30.3496 45.1325 30.4436 45.2998 30.6109C45.4671 30.7782 45.5611 31.005 45.5611 31.2416C45.5611 31.4782 45.4671 31.7051 45.2998 31.8724L40.8579 36.3142C40.7749 36.3966 40.6765 36.4617 40.5683 36.5059C40.46 36.5501 40.3441 36.5725 40.2272 36.5719Z" fill="#46C0E7"/>
<path d="M41.1158 44.5685C41.0364 44.5814 40.9554 44.5814 40.8759 44.5685C38.3865 43.8672 36.1946 42.3714 34.6341 40.3089C33.0736 38.2464 32.2301 35.7303 32.2321 33.144V25.5218C32.2247 25.3224 32.2846 25.1263 32.4023 24.9652C32.5199 24.804 32.6884 24.6871 32.8806 24.6334L40.8759 22.3592C41.0328 22.3152 41.1988 22.3152 41.3557 22.3592L49.351 24.6334C49.5432 24.6871 49.7116 24.804 49.8293 24.9652C49.9469 25.1263 50.0069 25.3224 49.9995 25.5218V33.144C49.9956 35.7289 49.1499 38.2421 47.5903 40.3034C46.0307 42.3648 43.8421 43.862 41.3557 44.5685C41.2762 44.5814 41.1952 44.5814 41.1158 44.5685ZM34.0088 26.1881V33.144C34.0094 34.6575 34.3516 36.1514 35.01 37.5142C35.6683 38.8771 36.6258 40.0737 37.811 41.015C38.7922 41.8081 39.9131 42.4107 41.1158 42.7918C43.167 42.1509 44.9612 40.8741 46.2388 39.1461C47.5164 37.4181 48.2112 35.3285 48.2228 33.1796V26.1969L41.1158 24.1359L34.0088 26.1881Z" fill="#46C0E7"/>
<path d="M25.0255 45.1811H24.91C24.7864 45.1718 24.6657 45.1387 24.5547 45.0834C23.8617 44.7014 7.67555 35.6844 3.48243 29.4036C1.13712 25.9123 0 22.5365 0 19.3295C0 15.4739 1.67014 11.8494 4.95713 8.55349C6.06533 7.43112 7.38478 6.53927 8.83937 5.92937C10.294 5.31948 11.8549 5.00361 13.4322 5H13.5033C15.0821 5.00244 16.6447 5.31774 18.1009 5.92767C19.5571 6.53759 20.878 7.43006 21.9873 8.55349L24.9988 11.574L28.0193 8.55349C29.1275 7.43112 30.447 6.53927 31.9016 5.92937C33.3562 5.31948 34.9171 5.00361 36.4944 5H36.5655C38.1442 5.00244 39.7069 5.31774 41.1631 5.92767C42.6193 6.53759 43.9402 7.43006 45.0494 8.55349C50.0865 13.5906 51.2681 19.2939 48.6029 25.5037C48.5182 25.702 48.3642 25.8628 48.1697 25.956C47.9752 26.0491 47.7534 26.0684 47.5458 26.01L41.1139 24.1356L34.0069 26.1522V33.1081C34.0073 34.8224 34.4478 36.5079 35.2862 38.0031C35.35 38.102 35.3936 38.2126 35.4143 38.3285C35.435 38.4444 35.4324 38.5632 35.4068 38.6781C35.3812 38.793 35.333 38.9017 35.265 38.9978C35.197 39.0939 35.1106 39.1755 35.0108 39.2379C30.0981 42.516 25.5052 45.0745 25.4519 45.1012C25.3186 45.1627 25.1721 45.1901 25.0255 45.1811ZM13.4766 6.81228C12.134 6.80995 10.8042 7.07417 9.56438 7.5896C8.32458 8.10504 7.19943 8.86145 6.25415 9.81499C3.30475 12.7555 1.81228 15.9625 1.81228 19.3295C1.81228 22.1811 2.87833 25.2372 4.99266 28.4086C8.54616 33.8011 22.4759 41.832 25.0433 43.2889C26.1981 42.6315 29.645 40.6238 33.394 38.1719C32.6403 36.602 32.2428 34.885 32.2302 33.1437V25.5214C32.2228 25.322 32.2828 25.126 32.4004 24.9648C32.5181 24.8037 32.6866 24.6868 32.8787 24.6331L40.8741 22.3588C41.031 22.3148 41.1969 22.3148 41.3538 22.3588L47.3326 24.0823C49.2781 18.8853 48.1054 14.0881 43.7791 9.81499C42.8338 8.86145 41.7086 8.10504 40.4688 7.5896C39.229 7.07417 37.8993 6.80995 36.5566 6.81228H36.4944C35.1517 6.80995 33.8219 7.07417 32.5821 7.5896C31.3423 8.10504 30.2172 8.86145 29.2719 9.81499L25.6296 13.4751C25.547 13.5584 25.4487 13.6244 25.3405 13.6695C25.2322 13.7146 25.1161 13.7379 24.9988 13.7379C24.8816 13.7379 24.7654 13.7146 24.6572 13.6695C24.5489 13.6244 24.4507 13.5584 24.3681 13.4751L20.7258 9.83275C19.7805 8.87922 18.6553 8.12281 17.4155 7.60737C16.1757 7.09193 14.846 6.82772 13.5033 6.83005L13.4766 6.81228Z" fill="#46C0E7"/>
<path d="M37.561 10.4376H37.4455C37.1275 10.3947 36.8069 10.374 36.486 10.3754C36.2504 10.3754 36.0245 10.2818 35.8579 10.1152C35.6913 9.94858 35.5977 9.72262 35.5977 9.48701C35.5977 9.2514 35.6913 9.02543 35.8579 8.85883C36.0245 8.69223 36.2504 8.59863 36.486 8.59863C36.8871 8.59871 37.2878 8.62542 37.6853 8.67859C37.9209 8.69508 38.1404 8.80449 38.2953 8.98276C38.4502 9.16102 38.528 9.39353 38.5115 9.62915C38.495 9.86476 38.3856 10.0842 38.2073 10.2391C38.0291 10.394 37.7966 10.4718 37.561 10.4553V10.4376Z" fill="#46C0E7"/>
<path d="M45.4396 21.6749H45.2975C45.0657 21.6377 44.8581 21.5104 44.7199 21.3206C44.5817 21.1308 44.5243 20.8941 44.5601 20.6621C45.0221 17.6861 43.9827 15.0476 41.2731 12.347C40.8783 11.9415 40.43 11.5918 39.9406 11.3076L39.834 11.2454C39.629 11.1276 39.4792 10.9332 39.4176 10.7049C39.3559 10.4767 39.3875 10.2333 39.5053 10.0283C39.6231 9.82332 39.8175 9.67353 40.0457 9.61189C40.274 9.55025 40.5174 9.5818 40.7223 9.6996L40.8645 9.77956C41.4769 10.1424 42.0411 10.5812 42.5435 11.0855C45.635 14.177 46.8699 17.4018 46.3191 20.9375C46.2834 21.1446 46.1754 21.3323 46.0144 21.4673C45.8534 21.6023 45.6497 21.6758 45.4396 21.6749Z" fill="#46C0E7"/>
<path d="M16.2403 27.6884H10.91C10.6744 27.6884 10.4485 27.5948 10.2818 27.4282C10.1152 27.2616 10.0216 27.0356 10.0216 26.8V22.3581H5.57978C5.34417 22.3581 5.11821 22.2645 4.95161 22.0979C4.785 21.9313 4.69141 21.7054 4.69141 21.4698V16.1395C4.69141 15.9039 4.785 15.6779 4.95161 15.5113C5.11821 15.3447 5.34417 15.2511 5.57978 15.2511H10.0216V10.8093C10.0216 10.5737 10.1152 10.3477 10.2818 10.1811C10.4485 10.0145 10.6744 9.9209 10.91 9.9209H16.2403C16.4759 9.9209 16.7018 10.0145 16.8684 10.1811C17.035 10.3477 17.1286 10.5737 17.1286 10.8093V15.2511H21.5705C21.8061 15.2511 22.0321 15.3447 22.1987 15.5113C22.3653 15.6779 22.4589 15.9039 22.4589 16.1395V21.4698C22.4589 21.7054 22.3653 21.9313 22.1987 22.0979C22.0321 22.2645 21.8061 22.3581 21.5705 22.3581H17.1286V26.8C17.1286 27.0356 17.035 27.2616 16.8684 27.4282C16.7018 27.5948 16.4759 27.6884 16.2403 27.6884ZM11.7984 25.9116H15.3519V21.4698C15.3519 21.2341 15.4455 21.0082 15.6121 20.8416C15.7787 20.675 16.0047 20.5814 16.2403 20.5814H20.6821V17.0279H16.2403C16.0047 17.0279 15.7787 16.9343 15.6121 16.7677C15.4455 16.6011 15.3519 16.3751 15.3519 16.1395V11.6976H11.7984V16.1395C11.7984 16.3751 11.7048 16.6011 11.5382 16.7677C11.3716 16.9343 11.1456 17.0279 10.91 17.0279H6.46815V20.5814H10.91C11.1456 20.5814 11.3716 20.675 11.5382 20.8416C11.7048 21.0082 11.7984 21.2341 11.7984 21.4698V25.9116Z" fill="#46C0E7"/>
</svg>
